<svg width="20" height="35" viewBox="0 0 20 35" fill="none" xmlns="http://www.w3.org/2000/svg">
<path id="Vector" d="M16.2413 17.6873L0.847764 2.75707C0.721027 2.63675 0.620831 2.4939 0.552974 2.33679C0.485117 2.17969 0.450946 2.01144 0.452439 1.84179C0.453933 1.67213 0.491059 1.50444 0.561673 1.34842C0.632286 1.1924 0.734984 1.05115 0.863822 0.932831C0.99266 0.814516 1.14508 0.721489 1.31226 0.659136C1.47944 0.596782 1.65807 0.566339 1.8378 0.569568C2.01753 0.572798 2.1948 0.609636 2.35935 0.67795C2.52389 0.746265 2.67245 0.844699 2.79642 0.967557L19.1108 16.7926C19.3577 17.0321 19.4959 17.3531 19.4959 17.6873C19.4959 18.0215 19.3577 18.3426 19.1108 18.5821L2.79642 34.4071C2.67245 34.53 2.52389 34.6284 2.35935 34.6967C2.1948 34.765 2.01753 34.8019 1.8378 34.8051C1.65807 34.8083 1.47944 34.7779 1.31226 34.7155C1.14508 34.6532 0.99266 34.5602 0.863822 34.4418C0.734984 34.3235 0.632286 34.1823 0.561673 34.0262C0.491059 33.8702 0.453933 33.7025 0.452439 33.5329C0.450946 33.3632 0.485117 33.195 0.552974 33.0379C0.620831 32.8808 0.721027 32.7379 0.847764 32.6176L16.2413 17.6873Z" fill="#F29646"/>
</svg>
