<svg width="15" height="16" viewBox="0 0 15 16" fill="none" xmlns="http://www.w3.org/2000/svg">
<g id="ion:search" opacity="0.7">
<path id="Vector" d="M13.3796 12.8454L10.623 10.0889C11.2867 9.20538 11.645 8.12998 11.6437 7.025C11.6437 4.20254 9.34746 1.90625 6.525 1.90625C3.70254 1.90625 1.40625 4.20254 1.40625 7.025C1.40625 9.84746 3.70254 12.1437 6.525 12.1437C7.62998 12.145 8.70538 11.7867 9.58887 11.123L12.3454 13.8796C12.4849 14.0043 12.6669 14.0709 12.854 14.0657C13.0411 14.0604 13.2191 13.9838 13.3514 13.8514C13.4838 13.7191 13.5604 13.5411 13.5657 13.354C13.5709 13.1669 13.5043 12.9849 13.3796 12.8454ZM2.86875 7.025C2.86875 6.30186 3.08319 5.59496 3.48494 4.9937C3.88669 4.39243 4.45772 3.9238 5.12581 3.64707C5.79391 3.37033 6.52906 3.29793 7.2383 3.439C7.94754 3.58008 8.59902 3.9283 9.11036 4.43964C9.62169 4.95098 9.96992 5.60246 10.111 6.3117C10.2521 7.02094 10.1797 7.75609 9.90293 8.42419C9.6262 9.09228 9.15757 9.66331 8.5563 10.0651C7.95504 10.4668 7.24814 10.6812 6.525 10.6812C5.55566 10.6801 4.62635 10.2945 3.94093 9.60907C3.2555 8.92365 2.86991 7.99434 2.86875 7.025Z" fill="#F29646"/>
</g>
</svg>
