<svg width="61" height="45" viewBox="0 0 61 45" fill="none" xmlns="http://www.w3.org/2000/svg">
<path id="Vector" d="M38.7315 22.1427C44.7237 22.1427 49.5772 17.225 49.5772 11.1534C49.5772 5.08179 44.7237 0.164062 38.7315 0.164062C32.7392 0.164062 27.8858 5.08179 27.8858 11.1534C27.8858 17.225 32.7392 22.1427 38.7315 22.1427ZM14.3286 16.6481V11.1175C14.3286 9.62001 13.1147 8.40606 11.6172 8.40606C10.1197 8.40606 8.90577 9.62001 8.90577 11.1175V16.6481H3.51881C2.0015 16.6481 0.771484 17.8781 0.771484 19.3954C0.771484 20.9127 2.00151 22.1427 3.51882 22.1427H8.90577V27.6733C8.90577 29.1708 10.1197 30.3847 11.6172 30.3847C13.1147 30.3847 14.3286 29.1708 14.3286 27.6733V22.1427H19.7156C21.2329 22.1427 22.4629 20.9127 22.4629 19.3954C22.4629 17.8781 21.2329 16.6481 19.7156 16.6481H14.3286ZM38.7315 27.6374C31.492 27.6374 17.0401 31.3188 17.0401 38.6267V44.1214H60.4229V38.6267C60.4229 31.3188 45.971 27.6374 38.7315 27.6374Z" fill="white"/>
</svg>
