<svg width="46" height="46" viewBox="0 0 46 46" fill="none" xmlns="http://www.w3.org/2000/svg">
<path id="Vector" d="M31.378 21.7708C31.8748 22.0961 32.5439 21.9193 32.8152 21.3912L40.6873 6.06978C41.3138 4.85048 42.8572 4.4405 44.0062 5.1882C44.9999 5.83489 45.3438 7.12828 44.8023 8.18307L36.501 24.355C35.1489 26.9892 31.8165 27.8779 29.3323 26.2668L20.2384 20.3693C19.7416 20.0471 19.0752 20.2247 18.8047 20.7514L8.56538 40.6893H43.2869C44.6875 40.6893 45.8229 41.8247 45.8229 43.2253C45.8229 44.6259 44.6875 45.7613 43.2869 45.7613H5.77149C3.01007 45.7613 0.771484 43.5227 0.771484 40.7613V2.36586C0.771484 1.1218 1.78 0.113281 3.02406 0.113281C4.26812 0.113281 5.27663 1.12179 5.27663 2.36585V36.9867L15.1304 17.7444C16.4848 15.0994 19.8334 14.2125 22.3196 15.8402L31.378 21.7708Z" fill="white"/>
</svg>
