<svg width="18" height="17" viewBox="0 0 18 17" fill="none" xmlns="http://www.w3.org/2000/svg">
<path d="M16.8438 3.39624C17.0312 3.58374 17.0312 3.92749 16.8438 4.11499L15.5 5.45874C15.2812 5.64624 15.0312 5.73999 14.7812 5.73999H2.75C2.3125 5.73999 2 5.42749 2 4.98999V2.48999C2 2.08374 2.3125 1.73999 2.75 1.73999H8V1.23999C8 0.98999 8.21875 0.73999 8.5 0.73999H9.5C9.75 0.73999 10 0.98999 10 1.23999V1.73999H14.7812C15.0312 1.73999 15.3125 1.86499 15.5 2.05249L16.8438 3.39624ZM8 16.24V12.74H10V16.24C10 16.5212 9.75 16.74 9.5 16.74H8.5C8.21875 16.74 8 16.5212 8 16.24ZM15.25 7.73999C15.6562 7.73999 16 8.08374 16 8.48999V10.99C16 11.4275 15.6562 11.74 15.25 11.74H3.1875C2.9375 11.74 2.6875 11.6462 2.5 11.4587L1.125 10.115C0.9375 9.92749 0.9375 9.58374 1.125 9.39624L2.5 8.05249C2.6875 7.86499 2.9375 7.73999 3.1875 7.73999H8V6.73999H10V7.73999H15.25Z" fill="white"/>
</svg>
