<svg width="22" height="22" viewBox="0 0 22 22" fill="none" xmlns="http://www.w3.org/2000/svg">
<path d="M18 1C18 0.447715 17.5523 0 17 0C16.4477 0 16 0.447715 16 1H18ZM16 5C16 5.55228 16.4477 6 17 6C17.5523 6 18 5.55228 18 5H16ZM6 1C6 0.447715 5.55228 0 5 0C4.44772 0 4 0.447715 4 1H6ZM4 5C4 5.55228 4.44772 6 5 6C5.55228 6 6 5.55228 6 5H4ZM1.58579 20.4142L0.87868 21.1213L1.58579 20.4142ZM20.4142 20.4142L21.1213 21.1213L20.4142 20.4142ZM20.4142 3.58579L19.7071 4.29289L20.4142 3.58579ZM20 7V17H22V7H20ZM17 20H5V22H17V20ZM2 17V7H0V17H2ZM5.00069 4C5.00906 4 5.01744 4 5.02581 4C5.03418 4 5.04255 4 5.05091 4C5.05927 4 5.06763 4 5.07599 4C5.08435 4 5.0927 4 5.10105 4C5.1094 4 5.11775 4 5.12609 4C5.13444 4 5.14278 4 5.15112 4C5.15945 4 5.16779 4 5.17612 4C5.18445 4 5.19278 4 5.2011 4C5.20943 4 5.21775 4 5.22607 4C5.23439 4 5.2427 4 5.25101 4C5.25932 4 5.26763 4 5.27594 4C5.28424 4 5.29255 4 5.30085 4C5.30914 4 5.31744 4 5.32573 4C5.33403 4 5.34232 4 5.3506 4C5.35889 4 5.36717 4 5.37545 4C5.38373 4 5.39201 4 5.40029 4C5.40856 4 5.41683 4 5.4251 4C5.43337 4 5.44163 4 5.44989 4C5.45816 4 5.46641 4 5.47467 4C5.48293 4 5.49118 4 5.49943 4C5.50768 4 5.51592 4 5.52417 4C5.53241 4 5.54065 4 5.54889 4C5.55713 4 5.56536 4 5.57359 4C5.58182 4 5.59005 4 5.59828 4C5.6065 4 5.61472 4 5.62294 4C5.63116 4 5.63938 4 5.64759 4C5.65581 4 5.66402 4 5.67222 4C5.68043 4 5.68864 4 5.69684 4C5.70504 4 5.71324 4 5.72143 4C5.72963 4 5.73782 4 5.74601 4C5.7542 4 5.76239 4 5.77057 4C5.77876 4 5.78694 4 5.79511 4C5.80329 4 5.81147 4 5.81964 4C5.82781 4 5.83598 4 5.84415 4C5.85231 4 5.86048 4 5.86864 4C5.8768 4 5.88496 4 5.89311 4C5.90127 4 5.90942 4 5.91757 4C5.92572 4 5.93387 4 5.94201 4C5.95015 4 5.9583 4 5.96643 4C5.97457 4 5.98271 4 5.99084 4C5.99897 4 6.0071 4 6.01523 4C6.02336 4 6.03148 4 6.0396 4C6.04772 4 6.05584 4 6.06396 4C6.07207 4 6.08019 4 6.0883 4C6.09641 4 6.10452 4 6.11262 4C6.12073 4 6.12883 4 6.13693 4C6.14503 4 6.15312 4 6.16122 4C6.16931 4 6.1774 4 6.18549 4C6.19358 4 6.20167 4 6.20975 4C6.21783 4 6.22591 4 6.23399 4C6.24207 4 6.25015 4 6.25822 4C6.26629 4 6.27436 4 6.28243 4C6.2905 4 6.29856 4 6.30662 4C6.31468 4 6.32274 4 6.3308 4C6.33886 4 6.34691 4 6.35496 4C6.36302 4 6.37106 4 6.37911 4C6.38716 4 6.3952 4 6.40324 4C6.41128 4 6.41932 4 6.42736 4C6.4354 4 6.44343 4 6.45146 4C6.45949 4 6.46752 4 6.47555 4C6.48357 4 6.49159 4 6.49962 4C6.50764 4 6.51566 4 6.52367 4C6.53169 4 6.5397 4 6.54771 4C6.55572 4 6.56373 4 6.57174 4C6.57974 4 6.58775 4 6.59575 4C6.60375 4 6.61175 4 6.61974 4C6.62774 4 6.63573 4 6.64372 4C6.65171 4 6.6597 4 6.66769 4C6.67567 4 6.68366 4 6.69164 4C6.69962 4 6.7076 4 6.71558 4C6.72355 4 6.73153 4 6.7395 4C6.74747 4 6.75544 4 6.76341 4C6.77137 4 6.77934 4 6.7873 4C6.79526 4 6.80322 4 6.81118 4C6.81914 4 6.82709 4 6.83505 4C6.843 4 6.85095 4 6.8589 4C6.86685 4 6.87479 4 6.88274 4C6.89068 4 6.89862 4 6.90656 4C6.9145 4 6.92243 4 6.93037 4C6.9383 4 6.94624 4 6.95417 4C6.96209 4 6.97002 4 6.97795 4C6.98587 4 6.9938 4 7.00172 4C7.00964 4 7.01756 4 7.02547 4C7.03339 4 7.0413 4 7.04921 4C7.05713 4 7.06503 4 7.07294 4C7.08085 4 7.08875 4 7.09666 4C7.10456 4 7.11246 4 7.12036 4C7.12826 4 7.13615 4 7.14405 4C7.15194 4 7.15983 4 7.16772 4C7.17561 4 7.1835 4 7.19139 4C7.19927 4 7.20716 4 7.21504 4C7.22292 4 7.2308 4 7.23867 4C7.24655 4 7.25443 4 7.2623 4C7.27017 4 7.27804 4 7.28591 4C7.29378 4 7.30165 4 7.30951 4C7.31737 4 7.32524 4 7.3331 4C7.34096 4 7.34881 4 7.35667 4C7.36453 4 7.37238 4 7.38023 4C7.38808 4 7.39594 4 7.40378 4C7.41163 4 7.41948 4 7.42732 4C7.43516 4 7.44301 4 7.45085 4C7.45869 4 7.46652 4 7.47436 4C7.48219 4 7.49003 4 7.49786 4C7.50569 4 7.51352 4 7.52135 4C7.52918 4 7.537 4 7.54483 4C7.55265 4 7.56047 4 7.56829 4C7.57611 4 7.58393 4 7.59175 4C7.59956 4 7.60738 4 7.61519 4C7.623 4 7.63081 4 7.63862 4C7.64643 4 7.65424 4 7.66204 4C7.66985 4 7.67765 4 7.68545 4C7.69325 4 7.70105 4 7.70885 4C7.71665 4 7.72444 4 7.73223 4C7.74003 4 7.74782 4 7.75561 4C7.7634 4 7.77119 4 7.77897 4C7.78676 4 7.79454 4 7.80233 4C7.81011 4 7.81789 4 7.82567 4C7.83345 4 7.84123 4 7.849 4C7.85678 4 7.86455 4 7.87232 4C7.88009 4 7.88786 4 7.89563 4C7.9034 4 7.91117 4 7.91893 4C7.9267 4 7.93446 4 7.94222 4C7.94998 4 7.95774 4 7.9655 4C7.97326 4 7.98101 4 7.98877 4C7.99652 4 8.00427 4 8.01203 4C8.01978 4 8.02753 4 8.03527 4C8.04302 4 8.05077 4 8.05851 4C8.06626 4 8.074 4 8.08174 4C8.08948 4 8.09722 4 8.10496 4C8.11269 4 8.12043 4 8.12816 4C8.1359 4 8.14363 4 8.15136 4C8.15909 4 8.16682 4 8.17455 4C8.18228 4 8.19001 4 8.19773 4C8.20546 4 8.21318 4 8.2209 4C8.22862 4 8.23634 4 8.24406 4C8.25178 4 8.2595 4 8.26721 4C8.27493 4 8.28264 4 8.29035 4C8.29806 4 8.30577 4 8.31348 4C8.32119 4 8.3289 4 8.33661 4C8.34431 4 8.35202 4 8.35972 4C8.36742 4 8.37512 4 8.38282 4C8.39052 4 8.39822 4 8.40592 4C8.41362 4 8.42131 4 8.42901 4C8.4367 4 8.44439 4 8.45209 4C8.45978 4 8.46747 4 8.47516 4C8.48284 4 8.49053 4 8.49822 4C8.5059 4 8.51359 4 8.52127 4C8.52895 4 8.53663 4 8.54431 4C8.55199 4 8.55967 4 8.56735 4C8.57502 4 8.5827 4 8.59037 4C8.59805 4 8.60572 4 8.61339 4C8.62107 4 8.62874 4 8.6364 4C8.64407 4 8.65174 4 8.65941 4C8.66707 4 8.67474 4 8.6824 4C8.69007 4 8.69773 4 8.70539 4C8.71305 4 8.72071 4 8.72837 4C8.73603 4 8.74368 4 8.75134 4C8.759 4 8.76665 4 8.7743 4C8.78196 4 8.78961 4 8.79726 4C8.80491 4 8.81256 4 8.82021 4C8.82786 4 8.8355 4 8.84315 4C8.85079 4 8.85844 4 8.86608 4C8.87372 4 8.88137 4 8.88901 4C8.89665 4 8.90429 4 8.91193 4C8.91957 4 8.9272 4 8.93484 4C8.94247 4 8.95011 4 8.95774 4C8.96538 4 8.97301 4 8.98064 4C8.98827 4 8.9959 4 9.00353 4C9.01116 4 9.01879 4 9.02642 4C9.03404 4 9.04167 4 9.04929 4C9.05692 4 9.06454 4 9.07216 4C9.07979 4 9.08741 4 9.09503 4C9.10265 4 9.11027 4 9.11789 4C9.1255 4 9.13312 4 9.14074 4C9.14835 4 9.15597 4 9.16358 4C9.1712 4 9.17881 4 9.18642 4C9.19403 4 9.20164 4 9.20925 4C9.21686 4 9.22447 4 9.23208 4C9.23969 4 9.24729 4 9.2549 4C9.2625 4 9.27011 4 9.27771 4C9.28532 4 9.29292 4 9.30052 4C9.30812 4 9.31572 4 9.32332 4C9.33092 4 9.33852 4 9.34612 4C9.35372 4 9.36131 4 9.36891 4C9.37651 4 9.3841 4 9.3917 4C9.39929 4 9.40688 4 9.41448 4C9.42207 4 9.42966 4 9.43725 4C9.44484 4 9.45243 4 9.46002 4C9.46761 4 9.4752 4 9.48278 4C9.49037 4 9.49796 4 9.50554 4C9.51313 4 9.52071 4 9.5283 4C9.53588 4 9.54346 4 9.55104 4C9.55863 4 9.56621 4 9.57379 4C9.58137 4 9.58895 4 9.59653 4C9.6041 4 9.61168 4 9.61926 4C9.62684 4 9.63441 4 9.64199 4C9.64956 4 9.65714 4 9.66471 4C9.67229 4 9.67986 4 9.68743 4C9.69501 4 9.70258 4 9.71015 4C9.71772 4 9.72529 4 9.73286 4C9.74043 4 9.748 4 9.75557 4C9.76313 4 9.7707 4 9.77827 4C9.78583 4 9.7934 4 9.80097 4C9.80853 4 9.8161 4 9.82366 4C9.83122 4 9.83879 4 9.84635 4C9.85391 4 9.86147 4 9.86904 4C9.8766 4 9.88416 4 9.89172 4C9.89928 4 9.90684 4 9.9144 4C9.92195 4 9.92951 4 9.93707 4C9.94463 4 9.95218 4 9.95974 4C9.9673 4 9.97485 4 9.98241 4C9.98996 4 9.99752 4 10.0051 4C10.0126 4 10.0202 4 10.0277 4C10.0353 4 10.0428 4 10.0504 4C10.0579 4 10.0655 4 10.073 4C10.0806 4 10.0881 4 10.0957 4C10.1032 4 10.1108 4 10.1183 4C10.1259 4 10.1334 4 10.141 4C10.1485 4 10.1561 4 10.1636 4C10.1712 4 10.1787 4 10.1863 4C10.1938 4 10.2014 4 10.2089 4C10.2164 4 10.224 4 10.2315 4C10.2391 4 10.2466 4 10.2542 4C10.2617 4 10.2693 4 10.2768 4C10.2843 4 10.2919 4 10.2994 4C10.307 4 10.3145 4 10.322 4C10.3296 4 10.3371 4 10.3447 4C10.3522 4 10.3597 4 10.3673 4C10.3748 4 10.3824 4 10.3899 4C10.3974 4 10.405 4 10.4125 4C10.42 4 10.4276 4 10.4351 4C10.4427 4 10.4502 4 10.4577 4C10.4653 4 10.4728 4 10.4803 4C10.4879 4 10.4954 4 10.5029 4C10.5105 4 10.518 4 10.5256 4C10.5331 4 10.5406 4 10.5482 4C10.5557 4 10.5632 4 10.5708 4C10.5783 4 10.5858 4 10.5934 4C10.6009 4 10.6084 4 10.616 4C10.6235 4 10.631 4 10.6386 4C10.6461 4 10.6536 4 10.6612 4C10.6687 4 10.6762 4 10.6837 4C10.6913 4 10.6988 4 10.7063 4C10.7139 4 10.7214 4 10.7289 4C10.7365 4 10.744 4 10.7515 4C10.7591 4 10.7666 4 10.7741 4C10.7816 4 10.7892 4 10.7967 4C10.8042 4 10.8118 4 10.8193 4C10.8268 4 10.8344 4 10.8419 4C10.8494 4 10.8569 4 10.8645 4C10.872 4 10.8795 4 10.8871 4C10.8946 4 10.9021 4 10.9097 4C10.9172 4 10.9247 4 10.9322 4C10.9398 4 10.9473 4 10.9548 4C10.9624 4 10.9699 4 10.9774 4C10.9849 4 10.9925 4 11 4C11.0075 4 11.0151 4 11.0226 4C11.0301 4 11.0376 4 11.0452 4C11.0527 4 11.0602 4 11.0678 4C11.0753 4 11.0828 4 11.0903 4C11.0979 4 11.1054 4 11.1129 4C11.1205 4 11.128 4 11.1355 4C11.1431 4 11.1506 4 11.1581 4C11.1656 4 11.1732 4 11.1807 4C11.1882 4 11.1958 4 11.2033 4C11.2108 4 11.2184 4 11.2259 4C11.2334 4 11.2409 4 11.2485 4C11.256 4 11.2635 4 11.2711 4C11.2786 4 11.2861 4 11.2937 4C11.3012 4 11.3087 4 11.3163 4C11.3238 4 11.3313 4 11.3388 4C11.3464 4 11.3539 4 11.3614 4C11.369 4 11.3765 4 11.384 4C11.3916 4 11.3991 4 11.4066 4C11.4142 4 11.4217 4 11.4292 4C11.4368 4 11.4443 4 11.4518 4C11.4594 4 11.4669 4 11.4744 4C11.482 4 11.4895 4 11.4971 4C11.5046 4 11.5121 4 11.5197 4C11.5272 4 11.5347 4 11.5423 4C11.5498 4 11.5573 4 11.5649 4C11.5724 4 11.58 4 11.5875 4C11.595 4 11.6026 4 11.6101 4C11.6176 4 11.6252 4 11.6327 4C11.6403 4 11.6478 4 11.6553 4C11.6629 4 11.6704 4 11.678 4C11.6855 4 11.693 4 11.7006 4C11.7081 4 11.7157 4 11.7232 4C11.7307 4 11.7383 4 11.7458 4C11.7534 4 11.7609 4 11.7685 4C11.776 4 11.7836 4 11.7911 4C11.7986 4 11.8062 4 11.8137 4C11.8213 4 11.8288 4 11.8364 4C11.8439 4 11.8515 4 11.859 4C11.8666 4 11.8741 4 11.8817 4C11.8892 4 11.8968 4 11.9043 4C11.9119 4 11.9194 4 11.927 4C11.9345 4 11.9421 4 11.9496 4C11.9572 4 11.9647 4 11.9723 4C11.9798 4 11.9874 4 11.9949 4C12.0025 4 12.01 4 12.0176 4C12.0251 4 12.0327 4 12.0403 4C12.0478 4 12.0554 4 12.0629 4C12.0705 4 12.078 4 12.0856 4C12.0932 4 12.1007 4 12.1083 4C12.1158 4 12.1234 4 12.131 4C12.1385 4 12.1461 4 12.1537 4C12.1612 4 12.1688 4 12.1763 4C12.1839 4 12.1915 4 12.199 4C12.2066 4 12.2142 4 12.2217 4C12.2293 4 12.2369 4 12.2444 4C12.252 4 12.2596 4 12.2671 4C12.2747 4 12.2823 4 12.2899 4C12.2974 4 12.305 4 12.3126 4C12.3201 4 12.3277 4 12.3353 4C12.3429 4 12.3504 4 12.358 4C12.3656 4 12.3732 4 12.3807 4C12.3883 4 12.3959 4 12.4035 4C12.4111 4 12.4186 4 12.4262 4C12.4338 4 12.4414 4 12.449 4C12.4565 4 12.4641 4 12.4717 4C12.4793 4 12.4869 4 12.4945 4C12.502 4 12.5096 4 12.5172 4C12.5248 4 12.5324 4 12.54 4C12.5476 4 12.5552 4 12.5627 4C12.5703 4 12.5779 4 12.5855 4C12.5931 4 12.6007 4 12.6083 4C12.6159 4 12.6235 4 12.6311 4C12.6387 4 12.6463 4 12.6539 4C12.6615 4 12.6691 4 12.6767 4C12.6843 4 12.6919 4 12.6995 4C12.7071 4 12.7147 4 12.7223 4C12.7299 4 12.7375 4 12.7451 4C12.7527 4 12.7603 4 12.7679 4C12.7755 4 12.7831 4 12.7907 4C12.7984 4 12.806 4 12.8136 4C12.8212 4 12.8288 4 12.8364 4C12.844 4 12.8516 4 12.8593 4C12.8669 4 12.8745 4 12.8821 4C12.8897 4 12.8974 4 12.905 4C12.9126 4 12.9202 4 12.9278 4C12.9355 4 12.9431 4 12.9507 4C12.9583 4 12.966 4 12.9736 4C12.9812 4 12.9888 4 12.9965 4C13.0041 4 13.0117 4 13.0194 4C13.027 4 13.0346 4 13.0423 4C13.0499 4 13.0575 4 13.0652 4C13.0728 4 13.0804 4 13.0881 4C13.0957 4 13.1034 4 13.111 4C13.1186 4 13.1263 4 13.1339 4C13.1416 4 13.1492 4 13.1569 4C13.1645 4 13.1721 4 13.1798 4C13.1874 4 13.1951 4 13.2027 4C13.2104 4 13.218 4 13.2257 4C13.2334 4 13.241 4 13.2487 4C13.2563 4 13.264 4 13.2716 4C13.2793 4 13.287 4 13.2946 4C13.3023 4 13.3099 4 13.3176 4C13.3253 4 13.3329 4 13.3406 4C13.3483 4 13.3559 4 13.3636 4C13.3713 4 13.3789 4 13.3866 4C13.3943 4 13.402 4 13.4096 4C13.4173 4 13.425 4 13.4327 4C13.4403 4 13.448 4 13.4557 4C13.4634 4 13.471 4 13.4787 4C13.4864 4 13.4941 4 13.5018 4C13.5095 4 13.5172 4 13.5248 4C13.5325 4 13.5402 4 13.5479 4C13.5556 4 13.5633 4 13.571 4C13.5787 4 13.5864 4 13.5941 4C13.6018 4 13.6095 4 13.6172 4C13.6249 4 13.6326 4 13.6403 4C13.648 4 13.6557 4 13.6634 4C13.6711 4 13.6788 4 13.6865 4C13.6942 4 13.7019 4 13.7096 4C13.7174 4 13.7251 4 13.7328 4C13.7405 4 13.7482 4 13.7559 4C13.7637 4 13.7714 4 13.7791 4C13.7868 4 13.7945 4 13.8023 4C13.81 4 13.8177 4 13.8254 4C13.8332 4 13.8409 4 13.8486 4C13.8564 4 13.8641 4 13.8718 4C13.8796 4 13.8873 4 13.895 4C13.9028 4 13.9105 4 13.9183 4C13.926 4 13.9337 4 13.9415 4C13.9492 4 13.957 4 13.9647 4C13.9725 4 13.9802 4 13.988 4C13.9957 4 14.0035 4 14.0112 4C14.019 4 14.0267 4 14.0345 4C14.0423 4 14.05 4 14.0578 4C14.0655 4 14.0733 4 14.0811 4C14.0888 4 14.0966 4 14.1044 4C14.1121 4 14.1199 4 14.1277 4C14.1355 4 14.1432 4 14.151 4C14.1588 4 14.1666 4 14.1743 4C14.1821 4 14.1899 4 14.1977 4C14.2055 4 14.2132 4 14.221 4C14.2288 4 14.2366 4 14.2444 4C14.2522 4 14.26 4 14.2678 4C14.2756 4 14.2834 4 14.2912 4C14.2989 4 14.3067 4 14.3145 4C14.3223 4 14.3302 4 14.338 4C14.3458 4 14.3536 4 14.3614 4C14.3692 4 14.377 4 14.3848 4C14.3926 4 14.4004 4 14.4083 4C14.4161 4 14.4239 4 14.4317 4C14.4395 4 14.4473 4 14.4552 4C14.463 4 14.4708 4 14.4787 4C14.4865 4 14.4943 4 14.5021 4C14.51 4 14.5178 4 14.5256 4C14.5335 4 14.5413 4 14.5492 4C14.557 4 14.5648 4 14.5727 4C14.5805 4 14.5884 4 14.5962 4C14.6041 4 14.6119 4 14.6198 4C14.6276 4 14.6355 4 14.6433 4C14.6512 4 14.659 4 14.6669 4C14.6748 4 14.6826 4 14.6905 4C14.6984 4 14.7062 4 14.7141 4C14.722 4 14.7298 4 14.7377 4C14.7456 4 14.7534 4 14.7613 4C14.7692 4 14.7771 4 14.785 4C14.7928 4 14.8007 4 14.8086 4C14.8165 4 14.8244 4 14.8323 4C14.8402 4 14.8481 4 14.856 4C14.8638 4 14.8717 4 14.8796 4C14.8875 4 14.8954 4 14.9033 4C14.9112 4 14.9192 4 14.9271 4C14.935 4 14.9429 4 14.9508 4C14.9587 4 14.9666 4 14.9745 4C14.9824 4 14.9904 4 14.9983 4C15.0062 4 15.0141 4 15.0221 4C15.03 4 15.0379 4 15.0458 4C15.0538 4 15.0617 4 15.0696 4C15.0776 4 15.0855 4 15.0934 4C15.1014 4 15.1093 4 15.1173 4C15.1252 4 15.1332 4 15.1411 4C15.149 4 15.157 4 15.165 4C15.1729 4 15.1809 4 15.1888 4C15.1968 4 15.2047 4 15.2127 4C15.2207 4 15.2286 4 15.2366 4C15.2446 4 15.2525 4 15.2605 4C15.2685 4 15.2764 4 15.2844 4C15.2924 4 15.3004 4 15.3084 4C15.3163 4 15.3243 4 15.3323 4C15.3403 4 15.3483 4 15.3563 4C15.3643 4 15.3723 4 15.3803 4C15.3883 4 15.3963 4 15.4043 4C15.4123 4 15.4203 4 15.4283 4C15.4363 4 15.4443 4 15.4523 4C15.4603 4 15.4683 4 15.4763 4C15.4843 4 15.4924 4 15.5004 4C15.5084 4 15.5164 4 15.5245 4C15.5325 4 15.5405 4 15.5485 4C15.5566 4 15.5646 4 15.5726 4C15.5807 4 15.5887 4 15.5968 4C15.6048 4 15.6128 4 15.6209 4C15.6289 4 15.637 4 15.645 4C15.6531 4 15.6611 4 15.6692 4C15.6773 4 15.6853 4 15.6934 4C15.7014 4 15.7095 4 15.7176 4C15.7256 4 15.7337 4 15.7418 4C15.7499 4 15.7579 4 15.766 4C15.7741 4 15.7822 4 15.7902 4C15.7983 4 15.8064 4 15.8145 4C15.8226 4 15.8307 4 15.8388 4C15.8469 4 15.855 4 15.8631 4C15.8712 4 15.8793 4 15.8874 4C15.8955 4 15.9036 4 15.9117 4C15.9198 4 15.9279 4 15.936 4C15.9442 4 15.9523 4 15.9604 4C15.9685 4 15.9766 4 15.9848 4C15.9929 4 16.001 4 16.0092 4C16.0173 4 16.0254 4 16.0336 4C16.0417 4 16.0498 4 16.058 4C16.0661 4 16.0743 4 16.0824 4C16.0906 4 16.0987 4 16.1069 4C16.115 4 16.1232 4 16.1314 4C16.1395 4 16.1477 4 16.1559 4C16.164 4 16.1722 4 16.1804 4C16.1885 4 16.1967 4 16.2049 4C16.2131 4 16.2212 4 16.2294 4C16.2376 4 16.2458 4 16.254 4C16.2622 4 16.2704 4 16.2786 4C16.2868 4 16.295 4 16.3032 4C16.3114 4 16.3196 4 16.3278 4C16.336 4 16.3442 4 16.3524 4C16.3606 4 16.3688 4 16.3771 4C16.3853 4 16.3935 4 16.4017 4C16.4099 4 16.4182 4 16.4264 4C16.4346 4 16.4429 4 16.4511 4C16.4593 4 16.4676 4 16.4758 4C16.4841 4 16.4923 4 16.5006 4C16.5088 4 16.5171 4 16.5253 4C16.5336 4 16.5418 4 16.5501 4C16.5584 4 16.5666 4 16.5749 4C16.5832 4 16.5914 4 16.5997 4C16.608 4 16.6163 4 16.6245 4C16.6328 4 16.6411 4 16.6494 4C16.6577 4 16.666 4 16.6743 4C16.6826 4 16.6909 4 16.6992 4C16.7075 4 16.7158 4 16.7241 4C16.7324 4 16.7407 4 16.749 4C16.7573 4 16.7656 4 16.7739 4C16.7823 4 16.7906 4 16.7989 4C16.8072 4 16.8155 4 16.8239 4C16.8322 4 16.8405 4 16.8489 4C16.8572 4 16.8656 4 16.8739 4C16.8823 4 16.8906 4 16.8989 4C16.9073 4 16.9157 4 16.924 4C16.9324 4 16.9407 4 16.9491 4C16.9575 4 16.9658 4 16.9742 4C16.9826 4 16.9909 4 16.9993 4V2C16.9909 2 16.9826 2 16.9742 2C16.9658 2 16.9575 2 16.9491 2C16.9407 2 16.9324 2 16.924 2C16.9157 2 16.9073 2 16.8989 2C16.8906 2 16.8823 2 16.8739 2C16.8656 2 16.8572 2 16.8489 2C16.8405 2 16.8322 2 16.8239 2C16.8155 2 16.8072 2 16.7989 2C16.7906 2 16.7823 2 16.7739 2C16.7656 2 16.7573 2 16.749 2C16.7407 2 16.7324 2 16.7241 2C16.7158 2 16.7075 2 16.6992 2C16.6909 2 16.6826 2 16.6743 2C16.666 2 16.6577 2 16.6494 2C16.6411 2 16.6328 2 16.6245 2C16.6163 2 16.608 2 16.5997 2C16.5914 2 16.5832 2 16.5749 2C16.5666 2 16.5584 2 16.5501 2C16.5418 2 16.5336 2 16.5253 2C16.5171 2 16.5088 2 16.5006 2C16.4923 2 16.4841 2 16.4758 2C16.4676 2 16.4593 2 16.4511 2C16.4429 2 16.4346 2 16.4264 2C16.4182 2 16.4099 2 16.4017 2C16.3935 2 16.3853 2 16.3771 2C16.3688 2 16.3606 2 16.3524 2C16.3442 2 16.336 2 16.3278 2C16.3196 2 16.3114 2 16.3032 2C16.295 2 16.2868 2 16.2786 2C16.2704 2 16.2622 2 16.254 2C16.2458 2 16.2376 2 16.2294 2C16.2212 2 16.2131 2 16.2049 2C16.1967 2 16.1885 2 16.1804 2C16.1722 2 16.164 2 16.1559 2C16.1477 2 16.1395 2 16.1314 2C16.1232 2 16.115 2 16.1069 2C16.0987 2 16.0906 2 16.0824 2C16.0743 2 16.0661 2 16.058 2C16.0498 2 16.0417 2 16.0336 2C16.0254 2 16.0173 2 16.0092 2C16.001 2 15.9929 2 15.9848 2C15.9766 2 15.9685 2 15.9604 2C15.9523 2 15.9442 2 15.936 2C15.9279 2 15.9198 2 15.9117 2C15.9036 2 15.8955 2 15.8874 2C15.8793 2 15.8712 2 15.8631 2C15.855 2 15.8469 2 15.8388 2C15.8307 2 15.8226 2 15.8145 2C15.8064 2 15.7983 2 15.7902 2C15.7822 2 15.7741 2 15.766 2C15.7579 2 15.7499 2 15.7418 2C15.7337 2 15.7256 2 15.7176 2C15.7095 2 15.7014 2 15.6934 2C15.6853 2 15.6773 2 15.6692 2C15.6611 2 15.6531 2 15.645 2C15.637 2 15.6289 2 15.6209 2C15.6128 2 15.6048 2 15.5968 2C15.5887 2 15.5807 2 15.5726 2C15.5646 2 15.5566 2 15.5485 2C15.5405 2 15.5325 2 15.5245 2C15.5164 2 15.5084 2 15.5004 2C15.4924 2 15.4843 2 15.4763 2C15.4683 2 15.4603 2 15.4523 2C15.4443 2 15.4363 2 15.4283 2C15.4203 2 15.4123 2 15.4043 2C15.3963 2 15.3883 2 15.3803 2C15.3723 2 15.3643 2 15.3563 2C15.3483 2 15.3403 2 15.3323 2C15.3243 2 15.3163 2 15.3084 2C15.3004 2 15.2924 2 15.2844 2C15.2764 2 15.2685 2 15.2605 2C15.2525 2 15.2446 2 15.2366 2C15.2286 2 15.2207 2 15.2127 2C15.2047 2 15.1968 2 15.1888 2C15.1809 2 15.1729 2 15.165 2C15.157 2 15.149 2 15.1411 2C15.1332 2 15.1252 2 15.1173 2C15.1093 2 15.1014 2 15.0934 2C15.0855 2 15.0776 2 15.0696 2C15.0617 2 15.0538 2 15.0458 2C15.0379 2 15.03 2 15.0221 2C15.0141 2 15.0062 2 14.9983 2C14.9904 2 14.9824 2 14.9745 2C14.9666 2 14.9587 2 14.9508 2C14.9429 2 14.935 2 14.9271 2C14.9192 2 14.9112 2 14.9033 2C14.8954 2 14.8875 2 14.8796 2C14.8717 2 14.8638 2 14.856 2C14.8481 2 14.8402 2 14.8323 2C14.8244 2 14.8165 2 14.8086 2C14.8007 2 14.7928 2 14.785 2C14.7771 2 14.7692 2 14.7613 2C14.7534 2 14.7456 2 14.7377 2C14.7298 2 14.722 2 14.7141 2C14.7062 2 14.6984 2 14.6905 2C14.6826 2 14.6748 2 14.6669 2C14.659 2 14.6512 2 14.6433 2C14.6355 2 14.6276 2 14.6198 2C14.6119 2 14.6041 2 14.5962 2C14.5884 2 14.5805 2 14.5727 2C14.5648 2 14.557 2 14.5492 2C14.5413 2 14.5335 2 14.5256 2C14.5178 2 14.51 2 14.5021 2C14.4943 2 14.4865 2 14.4787 2C14.4708 2 14.463 2 14.4552 2C14.4473 2 14.4395 2 14.4317 2C14.4239 2 14.4161 2 14.4083 2C14.4004 2 14.3926 2 14.3848 2C14.377 2 14.3692 2 14.3614 2C14.3536 2 14.3458 2 14.338 2C14.3302 2 14.3223 2 14.3145 2C14.3067 2 14.2989 2 14.2912 2C14.2834 2 14.2756 2 14.2678 2C14.26 2 14.2522 2 14.2444 2C14.2366 2 14.2288 2 14.221 2C14.2132 2 14.2055 2 14.1977 2C14.1899 2 14.1821 2 14.1743 2C14.1666 2 14.1588 2 14.151 2C14.1432 2 14.1355 2 14.1277 2C14.1199 2 14.1121 2 14.1044 2C14.0966 2 14.0888 2 14.0811 2C14.0733 2 14.0655 2 14.0578 2C14.05 2 14.0423 2 14.0345 2C14.0267 2 14.019 2 14.0112 2C14.0035 2 13.9957 2 13.988 2C13.9802 2 13.9725 2 13.9647 2C13.957 2 13.9492 2 13.9415 2C13.9337 2 13.926 2 13.9183 2C13.9105 2 13.9028 2 13.895 2C13.8873 2 13.8796 2 13.8718 2C13.8641 2 13.8564 2 13.8486 2C13.8409 2 13.8332 2 13.8254 2C13.8177 2 13.81 2 13.8023 2C13.7945 2 13.7868 2 13.7791 2C13.7714 2 13.7637 2 13.7559 2C13.7482 2 13.7405 2 13.7328 2C13.7251 2 13.7174 2 13.7096 2C13.7019 2 13.6942 2 13.6865 2C13.6788 2 13.6711 2 13.6634 2C13.6557 2 13.648 2 13.6403 2C13.6326 2 13.6249 2 13.6172 2C13.6095 2 13.6018 2 13.5941 2C13.5864 2 13.5787 2 13.571 2C13.5633 2 13.5556 2 13.5479 2C13.5402 2 13.5325 2 13.5248 2C13.5172 2 13.5095 2 13.5018 2C13.4941 2 13.4864 2 13.4787 2C13.471 2 13.4634 2 13.4557 2C13.448 2 13.4403 2 13.4327 2C13.425 2 13.4173 2 13.4096 2C13.402 2 13.3943 2 13.3866 2C13.3789 2 13.3713 2 13.3636 2C13.3559 2 13.3483 2 13.3406 2C13.3329 2 13.3253 2 13.3176 2C13.3099 2 13.3023 2 13.2946 2C13.287 2 13.2793 2 13.2716 2C13.264 2 13.2563 2 13.2487 2C13.241 2 13.2334 2 13.2257 2C13.218 2 13.2104 2 13.2027 2C13.1951 2 13.1874 2 13.1798 2C13.1721 2 13.1645 2 13.1569 2C13.1492 2 13.1416 2 13.1339 2C13.1263 2 13.1186 2 13.111 2C13.1034 2 13.0957 2 13.0881 2C13.0804 2 13.0728 2 13.0652 2C13.0575 2 13.0499 2 13.0423 2C13.0346 2 13.027 2 13.0194 2C13.0117 2 13.0041 2 12.9965 2C12.9888 2 12.9812 2 12.9736 2C12.966 2 12.9583 2 12.9507 2C12.9431 2 12.9355 2 12.9278 2C12.9202 2 12.9126 2 12.905 2C12.8974 2 12.8897 2 12.8821 2C12.8745 2 12.8669 2 12.8593 2C12.8516 2 12.844 2 12.8364 2C12.8288 2 12.8212 2 12.8136 2C12.806 2 12.7984 2 12.7907 2C12.7831 2 12.7755 2 12.7679 2C12.7603 2 12.7527 2 12.7451 2C12.7375 2 12.7299 2 12.7223 2C12.7147 2 12.7071 2 12.6995 2C12.6919 2 12.6843 2 12.6767 2C12.6691 2 12.6615 2 12.6539 2C12.6463 2 12.6387 2 12.6311 2C12.6235 2 12.6159 2 12.6083 2C12.6007 2 12.5931 2 12.5855 2C12.5779 2 12.5703 2 12.5627 2C12.5552 2 12.5476 2 12.54 2C12.5324 2 12.5248 2 12.5172 2C12.5096 2 12.502 2 12.4945 2C12.4869 2 12.4793 2 12.4717 2C12.4641 2 12.4565 2 12.449 2C12.4414 2 12.4338 2 12.4262 2C12.4186 2 12.4111 2 12.4035 2C12.3959 2 12.3883 2 12.3807 2C12.3732 2 12.3656 2 12.358 2C12.3504 2 12.3429 2 12.3353 2C12.3277 2 12.3201 2 12.3126 2C12.305 2 12.2974 2 12.2899 2C12.2823 2 12.2747 2 12.2671 2C12.2596 2 12.252 2 12.2444 2C12.2369 2 12.2293 2 12.2217 2C12.2142 2 12.2066 2 12.199 2C12.1915 2 12.1839 2 12.1763 2C12.1688 2 12.1612 2 12.1537 2C12.1461 2 12.1385 2 12.131 2C12.1234 2 12.1158 2 12.1083 2C12.1007 2 12.0932 2 12.0856 2C12.078 2 12.0705 2 12.0629 2C12.0554 2 12.0478 2 12.0403 2C12.0327 2 12.0251 2 12.0176 2C12.01 2 12.0025 2 11.9949 2C11.9874 2 11.9798 2 11.9723 2C11.9647 2 11.9572 2 11.9496 2C11.9421 2 11.9345 2 11.927 2C11.9194 2 11.9119 2 11.9043 2C11.8968 2 11.8892 2 11.8817 2C11.8741 2 11.8666 2 11.859 2C11.8515 2 11.8439 2 11.8364 2C11.8288 2 11.8213 2 11.8137 2C11.8062 2 11.7986 2 11.7911 2C11.7836 2 11.776 2 11.7685 2C11.7609 2 11.7534 2 11.7458 2C11.7383 2 11.7307 2 11.7232 2C11.7157 2 11.7081 2 11.7006 2C11.693 2 11.6855 2 11.678 2C11.6704 2 11.6629 2 11.6553 2C11.6478 2 11.6403 2 11.6327 2C11.6252 2 11.6176 2 11.6101 2C11.6026 2 11.595 2 11.5875 2C11.58 2 11.5724 2 11.5649 2C11.5573 2 11.5498 2 11.5423 2C11.5347 2 11.5272 2 11.5197 2C11.5121 2 11.5046 2 11.4971 2C11.4895 2 11.482 2 11.4744 2C11.4669 2 11.4594 2 11.4518 2C11.4443 2 11.4368 2 11.4292 2C11.4217 2 11.4142 2 11.4066 2C11.3991 2 11.3916 2 11.384 2C11.3765 2 11.369 2 11.3614 2C11.3539 2 11.3464 2 11.3388 2C11.3313 2 11.3238 2 11.3163 2C11.3087 2 11.3012 2 11.2937 2C11.2861 2 11.2786 2 11.2711 2C11.2635 2 11.256 2 11.2485 2C11.2409 2 11.2334 2 11.2259 2C11.2184 2 11.2108 2 11.2033 2C11.1958 2 11.1882 2 11.1807 2C11.1732 2 11.1656 2 11.1581 2C11.1506 2 11.1431 2 11.1355 2C11.128 2 11.1205 2 11.1129 2C11.1054 2 11.0979 2 11.0903 2C11.0828 2 11.0753 2 11.0678 2C11.0602 2 11.0527 2 11.0452 2C11.0376 2 11.0301 2 11.0226 2C11.0151 2 11.0075 2 11 2C10.9925 2 10.9849 2 10.9774 2C10.9699 2 10.9624 2 10.9548 2C10.9473 2 10.9398 2 10.9322 2C10.9247 2 10.9172 2 10.9097 2C10.9021 2 10.8946 2 10.8871 2C10.8795 2 10.872 2 10.8645 2C10.8569 2 10.8494 2 10.8419 2C10.8344 2 10.8268 2 10.8193 2C10.8118 2 10.8042 2 10.7967 2C10.7892 2 10.7816 2 10.7741 2C10.7666 2 10.7591 2 10.7515 2C10.744 2 10.7365 2 10.7289 2C10.7214 2 10.7139 2 10.7063 2C10.6988 2 10.6913 2 10.6837 2C10.6762 2 10.6687 2 10.6612 2C10.6536 2 10.6461 2 10.6386 2C10.631 2 10.6235 2 10.616 2C10.6084 2 10.6009 2 10.5934 2C10.5858 2 10.5783 2 10.5708 2C10.5632 2 10.5557 2 10.5482 2C10.5406 2 10.5331 2 10.5256 2C10.518 2 10.5105 2 10.5029 2C10.4954 2 10.4879 2 10.4803 2C10.4728 2 10.4653 2 10.4577 2C10.4502 2 10.4427 2 10.4351 2C10.4276 2 10.42 2 10.4125 2C10.405 2 10.3974 2 10.3899 2C10.3824 2 10.3748 2 10.3673 2C10.3597 2 10.3522 2 10.3447 2C10.3371 2 10.3296 2 10.322 2C10.3145 2 10.307 2 10.2994 2C10.2919 2 10.2843 2 10.2768 2C10.2693 2 10.2617 2 10.2542 2C10.2466 2 10.2391 2 10.2315 2C10.224 2 10.2164 2 10.2089 2C10.2014 2 10.1938 2 10.1863 2C10.1787 2 10.1712 2 10.1636 2C10.1561 2 10.1485 2 10.141 2C10.1334 2 10.1259 2 10.1183 2C10.1108 2 10.1032 2 10.0957 2C10.0881 2 10.0806 2 10.073 2C10.0655 2 10.0579 2 10.0504 2C10.0428 2 10.0353 2 10.0277 2C10.0202 2 10.0126 2 10.0051 2C9.99752 2 9.98996 2 9.98241 2C9.97485 2 9.9673 2 9.95974 2C9.95218 2 9.94463 2 9.93707 2C9.92951 2 9.92195 2 9.9144 2C9.90684 2 9.89928 2 9.89172 2C9.88416 2 9.8766 2 9.86904 2C9.86147 2 9.85391 2 9.84635 2C9.83879 2 9.83122 2 9.82366 2C9.8161 2 9.80853 2 9.80097 2C9.7934 2 9.78583 2 9.77827 2C9.7707 2 9.76313 2 9.75557 2C9.748 2 9.74043 2 9.73286 2C9.72529 2 9.71772 2 9.71015 2C9.70258 2 9.69501 2 9.68743 2C9.67986 2 9.67229 2 9.66471 2C9.65714 2 9.64956 2 9.64199 2C9.63441 2 9.62684 2 9.61926 2C9.61168 2 9.6041 2 9.59653 2C9.58895 2 9.58137 2 9.57379 2C9.56621 2 9.55863 2 9.55104 2C9.54346 2 9.53588 2 9.5283 2C9.52071 2 9.51313 2 9.50554 2C9.49796 2 9.49037 2 9.48278 2C9.4752 2 9.46761 2 9.46002 2C9.45243 2 9.44484 2 9.43725 2C9.42966 2 9.42207 2 9.41448 2C9.40688 2 9.39929 2 9.3917 2C9.3841 2 9.37651 2 9.36891 2C9.36131 2 9.35372 2 9.34612 2C9.33852 2 9.33092 2 9.32332 2C9.31572 2 9.30812 2 9.30052 2C9.29292 2 9.28532 2 9.27771 2C9.27011 2 9.2625 2 9.2549 2C9.24729 2 9.23969 2 9.23208 2C9.22447 2 9.21686 2 9.20925 2C9.20164 2 9.19403 2 9.18642 2C9.17881 2 9.1712 2 9.16358 2C9.15597 2 9.14835 2 9.14074 2C9.13312 2 9.1255 2 9.11789 2C9.11027 2 9.10265 2 9.09503 2C9.08741 2 9.07979 2 9.07216 2C9.06454 2 9.05692 2 9.04929 2C9.04167 2 9.03404 2 9.02642 2C9.01879 2 9.01116 2 9.00353 2C8.9959 2 8.98827 2 8.98064 2C8.97301 2 8.96538 2 8.95774 2C8.95011 2 8.94247 2 8.93484 2C8.9272 2 8.91957 2 8.91193 2C8.90429 2 8.89665 2 8.88901 2C8.88137 2 8.87372 2 8.86608 2C8.85844 2 8.85079 2 8.84315 2C8.8355 2 8.82786 2 8.82021 2C8.81256 2 8.80491 2 8.79726 2C8.78961 2 8.78196 2 8.7743 2C8.76665 2 8.759 2 8.75134 2C8.74368 2 8.73603 2 8.72837 2C8.72071 2 8.71305 2 8.70539 2C8.69773 2 8.69007 2 8.6824 2C8.67474 2 8.66707 2 8.65941 2C8.65174 2 8.64407 2 8.6364 2C8.62874 2 8.62107 2 8.61339 2C8.60572 2 8.59805 2 8.59037 2C8.5827 2 8.57502 2 8.56735 2C8.55967 2 8.55199 2 8.54431 2C8.53663 2 8.52895 2 8.52127 2C8.51359 2 8.5059 2 8.49822 2C8.49053 2 8.48284 2 8.47516 2C8.46747 2 8.45978 2 8.45209 2C8.44439 2 8.4367 2 8.42901 2C8.42131 2 8.41362 2 8.40592 2C8.39822 2 8.39052 2 8.38282 2C8.37512 2 8.36742 2 8.35972 2C8.35202 2 8.34431 2 8.33661 2C8.3289 2 8.32119 2 8.31348 2C8.30577 2 8.29806 2 8.29035 2C8.28264 2 8.27493 2 8.26721 2C8.2595 2 8.25178 2 8.24406 2C8.23634 2 8.22862 2 8.2209 2C8.21318 2 8.20546 2 8.19773 2C8.19001 2 8.18228 2 8.17455 2C8.16682 2 8.15909 2 8.15136 2C8.14363 2 8.1359 2 8.12816 2C8.12043 2 8.11269 2 8.10496 2C8.09722 2 8.08948 2 8.08174 2C8.074 2 8.06626 2 8.05851 2C8.05077 2 8.04302 2 8.03527 2C8.02753 2 8.01978 2 8.01203 2C8.00427 2 7.99652 2 7.98877 2C7.98101 2 7.97326 2 7.9655 2C7.95774 2 7.94998 2 7.94222 2C7.93446 2 7.9267 2 7.91893 2C7.91117 2 7.9034 2 7.89563 2C7.88786 2 7.88009 2 7.87232 2C7.86455 2 7.85678 2 7.849 2C7.84123 2 7.83345 2 7.82567 2C7.81789 2 7.81011 2 7.80233 2C7.79454 2 7.78676 2 7.77897 2C7.77119 2 7.7634 2 7.75561 2C7.74782 2 7.74003 2 7.73223 2C7.72444 2 7.71665 2 7.70885 2C7.70105 2 7.69325 2 7.68545 2C7.67765 2 7.66985 2 7.66204 2C7.65424 2 7.64643 2 7.63862 2C7.63081 2 7.623 2 7.61519 2C7.60738 2 7.59956 2 7.59175 2C7.58393 2 7.57611 2 7.56829 2C7.56047 2 7.55265 2 7.54483 2C7.537 2 7.52918 2 7.52135 2C7.51352 2 7.50569 2 7.49786 2C7.49003 2 7.48219 2 7.47436 2C7.46652 2 7.45869 2 7.45085 2C7.44301 2 7.43516 2 7.42732 2C7.41948 2 7.41163 2 7.40378 2C7.39594 2 7.38808 2 7.38023 2C7.37238 2 7.36453 2 7.35667 2C7.34881 2 7.34096 2 7.3331 2C7.32524 2 7.31737 2 7.30951 2C7.30165 2 7.29378 2 7.28591 2C7.27804 2 7.27017 2 7.2623 2C7.25443 2 7.24655 2 7.23867 2C7.2308 2 7.22292 2 7.21504 2C7.20716 2 7.19927 2 7.19139 2C7.1835 2 7.17561 2 7.16772 2C7.15983 2 7.15194 2 7.14405 2C7.13615 2 7.12826 2 7.12036 2C7.11246 2 7.10456 2 7.09666 2C7.08875 2 7.08085 2 7.07294 2C7.06503 2 7.05713 2 7.04921 2C7.0413 2 7.03339 2 7.02547 2C7.01756 2 7.00964 2 7.00172 2C6.9938 2 6.98587 2 6.97795 2C6.97002 2 6.96209 2 6.95417 2C6.94624 2 6.9383 2 6.93037 2C6.92243 2 6.9145 2 6.90656 2C6.89862 2 6.89068 2 6.88274 2C6.87479 2 6.86685 2 6.8589 2C6.85095 2 6.843 2 6.83505 2C6.82709 2 6.81914 2 6.81118 2C6.80322 2 6.79526 2 6.7873 2C6.77934 2 6.77137 2 6.76341 2C6.75544 2 6.74747 2 6.7395 2C6.73153 2 6.72355 2 6.71558 2C6.7076 2 6.69962 2 6.69164 2C6.68366 2 6.67567 2 6.66769 2C6.6597 2 6.65171 2 6.64372 2C6.63573 2 6.62774 2 6.61974 2C6.61175 2 6.60375 2 6.59575 2C6.58775 2 6.57974 2 6.57174 2C6.56373 2 6.55572 2 6.54771 2C6.5397 2 6.53169 2 6.52367 2C6.51566 2 6.50764 2 6.49962 2C6.49159 2 6.48357 2 6.47555 2C6.46752 2 6.45949 2 6.45146 2C6.44343 2 6.4354 2 6.42736 2C6.41932 2 6.41128 2 6.40324 2C6.3952 2 6.38716 2 6.37911 2C6.37106 2 6.36302 2 6.35496 2C6.34691 2 6.33886 2 6.3308 2C6.32274 2 6.31468 2 6.30662 2C6.29856 2 6.2905 2 6.28243 2C6.27436 2 6.26629 2 6.25822 2C6.25015 2 6.24207 2 6.23399 2C6.22591 2 6.21783 2 6.20975 2C6.20167 2 6.19358 2 6.18549 2C6.1774 2 6.16931 2 6.16122 2C6.15312 2 6.14503 2 6.13693 2C6.12883 2 6.12073 2 6.11262 2C6.10452 2 6.09641 2 6.0883 2C6.08019 2 6.07207 2 6.06396 2C6.05584 2 6.04772 2 6.0396 2C6.03148 2 6.02336 2 6.01523 2C6.0071 2 5.99897 2 5.99084 2C5.98271 2 5.97457 2 5.96643 2C5.9583 2 5.95015 2 5.94201 2C5.93387 2 5.92572 2 5.91757 2C5.90942 2 5.90127 2 5.89311 2C5.88496 2 5.8768 2 5.86864 2C5.86048 2 5.85231 2 5.84415 2C5.83598 2 5.82781 2 5.81964 2C5.81147 2 5.80329 2 5.79511 2C5.78694 2 5.77876 2 5.77057 2C5.76239 2 5.7542 2 5.74601 2C5.73782 2 5.72963 2 5.72143 2C5.71324 2 5.70504 2 5.69684 2C5.68864 2 5.68043 2 5.67222 2C5.66402 2 5.65581 2 5.64759 2C5.63938 2 5.63116 2 5.62294 2C5.61472 2 5.6065 2 5.59828 2C5.59005 2 5.58182 2 5.57359 2C5.56536 2 5.55713 2 5.54889 2C5.54065 2 5.53241 2 5.52417 2C5.51592 2 5.50768 2 5.49943 2C5.49118 2 5.48293 2 5.47467 2C5.46641 2 5.45816 2 5.44989 2C5.44163 2 5.43337 2 5.4251 2C5.41683 2 5.40856 2 5.40029 2C5.39201 2 5.38373 2 5.37545 2C5.36717 2 5.35889 2 5.3506 2C5.34232 2 5.33403 2 5.32573 2C5.31744 2 5.30914 2 5.30085 2C5.29255 2 5.28424 2 5.27594 2C5.26763 2 5.25932 2 5.25101 2C5.2427 2 5.23439 2 5.22607 2C5.21775 2 5.20943 2 5.2011 2C5.19278 2 5.18445 2 5.17612 2C5.16779 2 5.15945 2 5.15112 2C5.14278 2 5.13444 2 5.12609 2C5.11775 2 5.1094 2 5.10105 2C5.0927 2 5.08435 2 5.07599 2C5.06763 2 5.05927 2 5.05091 2C5.04255 2 5.03418 2 5.02581 2C5.01744 2 5.00906 2 5.00069 2V4ZM21 8H1V10H21V8ZM16 1V5H18V1H16ZM4 1V5H6V1H4ZM5 20C4.02892 20 3.40121 19.9979 2.9387 19.9357C2.50496 19.8774 2.36902 19.7832 2.29289 19.7071L0.87868 21.1213C1.38834 21.631 2.01669 21.8297 2.67221 21.9179C3.29896 22.0021 4.08546 22 5 22V20ZM0 17C0 17.9145 -0.00212371 18.701 0.0821405 19.3278C0.170272 19.9833 0.369017 20.6117 0.87868 21.1213L2.29289 19.7071C2.21677 19.631 2.12262 19.495 2.06431 19.0613C2.00212 18.5988 2 17.9711 2 17H0ZM20 17C20 17.9711 19.9979 18.5988 19.9357 19.0613C19.8774 19.495 19.7832 19.631 19.7071 19.7071L21.1213 21.1213C21.631 20.6117 21.8297 19.9833 21.9179 19.3278C22.0021 18.701 22 17.9145 22 17H20ZM17 22C17.9145 22 18.701 22.0021 19.3278 21.9179C19.9833 21.8297 20.6117 21.631 21.1213 21.1213L19.7071 19.7071C19.631 19.7832 19.495 19.8774 19.0613 19.9357C18.5988 19.9979 17.9711 20 17 20V22ZM22 7C22 6.08546 22.0021 5.29896 21.9179 4.67221C21.8297 4.01669 21.631 3.38834 21.1213 2.87868L19.7071 4.29289C19.7832 4.36902 19.8774 4.50496 19.9357 4.9387C19.9979 5.40121 20 6.02892 20 7H22ZM16.9993 4C17.9706 4 18.5985 4.00212 19.0612 4.06431C19.4951 4.12263 19.631 4.2168 19.7071 4.29289L21.1213 2.87868C20.6116 2.36898 19.9832 2.17026 19.3276 2.08214C18.7007 1.99788 17.9141 2 16.9993 2V4ZM2 7C2 6.02892 2.00212 5.40121 2.06431 4.9387C2.12262 4.50496 2.21677 4.36902 2.29289 4.29289L0.87868 2.87868C0.369017 3.38834 0.170272 4.01669 0.0821405 4.67221C-0.00212371 5.29896 0 6.08546 0 7H2ZM5.00069 2C4.08591 2 3.29926 1.99788 2.67241 2.08214C2.01683 2.17026 1.38838 2.36898 0.87868 2.87868L2.29289 4.29289C2.36898 4.2168 2.50494 4.12263 2.93885 4.06431C3.40149 4.00212 4.02938 4 5.00069 4V2Z" fill="#F99239"/>
</svg>
