<svg width="16" height="13" viewBox="0 0 16 13" fill="none" xmlns="http://www.w3.org/2000/svg">
<path d="M15.6875 4.48874C15.8125 4.39499 16 4.48874 16 4.64499V11.02C16 11.8637 15.3125 12.52 14.5 12.52H1.5C0.65625 12.52 0 11.8637 0 11.02V4.64499C0 4.48874 0.15625 4.39499 0.28125 4.48874C1 5.05124 1.90625 5.73874 5.09375 8.05124C5.75 8.51999 6.875 9.55124 8 9.55124C9.09375 9.55124 10.25 8.51999 10.875 8.05124C14.0625 5.73874 14.9688 5.05124 15.6875 4.48874ZM8 8.51999C7.25 8.55124 6.21875 7.61374 5.6875 7.23874C1.53125 4.23874 1.21875 3.95749 0.28125 3.20749C0.09375 3.08249 0 2.86374 0 2.61374V2.01999C0 1.20749 0.65625 0.519989 1.5 0.519989H14.5C15.3125 0.519989 16 1.20749 16 2.01999V2.61374C16 2.86374 15.875 3.08249 15.6875 3.20749C14.75 3.95749 14.4375 4.23874 10.2812 7.23874C9.75 7.61374 8.71875 8.55124 8 8.51999Z" fill="white"/>
</svg>
