<svg width="16" height="17" viewBox="0 0 16 17" fill="none" xmlns="http://www.w3.org/2000/svg">
<path d="M15.5312 12.2225C15.7812 12.3475 15.9688 12.6287 15.9688 12.9412C15.9688 12.9725 15.9688 13.035 15.9688 13.0975L15.2188 16.3475C15.125 16.6912 14.8438 16.91 14.5 16.91C6.46875 16.91 0 10.4412 0 2.40997C0 2.06622 0.21875 1.78497 0.5625 1.69122L3.8125 0.941223C3.875 0.941223 3.9375 0.909973 3.96875 0.909973C4.28125 0.909973 4.5625 1.09747 4.6875 1.37872L6.1875 4.87872C6.21875 4.97247 6.25 5.06622 6.25 5.15997C6.25 5.40997 6.125 5.62872 5.96875 5.75372L4.0625 7.31622C5.21875 9.75372 7.15625 11.6912 9.59375 12.8475L11.1562 10.9412C11.2812 10.785 11.5 10.66 11.7188 10.66C11.8438 10.66 11.9375 10.6912 12.0312 10.7225L15.5312 12.2225Z" fill="white"/>
</svg>
