<svg width="30" height="18" viewBox="0 0 30 18" fill="none" xmlns="http://www.w3.org/2000/svg">
<path d="M29.4512 0.457031C29.0306 2.25 28.599 4.13151 28.1562 6.10156C27.7357 8.07161 27.3483 10.0085 26.9941 11.9121C26.64 13.7936 26.3411 15.5202 26.0977 17.0918H16.8008L16.3359 16.3613C16.7344 14.7454 17.2435 13.0299 17.8633 11.2148C18.5052 9.3776 19.1914 7.54036 19.9219 5.70312C20.6745 3.84375 21.4271 2.09505 22.1797 0.457031H29.4512ZM13.9453 0.457031C13.5247 2.25 13.0931 4.13151 12.6504 6.10156C12.2298 8.07161 11.8424 10.0085 11.4883 11.9121C11.1341 13.7936 10.8353 15.5202 10.5918 17.0918H1.29492L0.830078 16.3613C1.22852 14.7454 1.73763 13.0299 2.35742 11.2148C2.99935 9.3776 3.68555 7.54036 4.41602 5.70312C5.16862 3.84375 5.92122 2.09505 6.67383 0.457031H13.9453Z" fill="#1D4189"/>
</svg>
