<svg width="287" height="56" viewBox="0 0 287 56" fill="none" xmlns="http://www.w3.org/2000/svg">
<path d="M15.3763 5.6L0 14.7H8.3871L1.39785 34.3L34.2473 14L31.4516 27.3L53.8172 14L46.129 36.4L41.2366 30.8L19.5699 44.8L24.4624 27.3L9.08602 37.8H15.3763L11.1828 56L40.5376 37.1L48.2258 49.7L65 0L39.8387 16.8L42.6344 2.1L11.8817 21.7V17.5L15.3763 5.6Z" fill="#F29646"/>
<path d="M76.0766 36H72.8492L81.4962 19.3091H85.2289L88.3421 36H85.1148L82.8736 22.732H82.7432L76.0766 36ZM77.2665 29.4557H86.0683L85.6608 31.8843H76.859L77.2665 29.4557ZM105.86 24.9406H102.861C102.861 24.4408 102.78 23.998 102.617 23.6122C102.454 23.221 102.225 22.8896 101.932 22.6179C101.639 22.3463 101.291 22.1425 100.889 22.0067C100.487 21.8654 100.041 21.7948 99.5522 21.7948C98.6177 21.7948 97.7484 22.0311 96.9443 22.5038C96.1402 22.9765 95.4583 23.6638 94.8987 24.5657C94.3391 25.4622 93.9506 26.5516 93.7332 27.8338C93.5322 29.0835 93.5512 30.1294 93.7903 30.9715C94.0348 31.8137 94.4586 32.4494 95.0617 32.8786C95.6648 33.3024 96.3983 33.5143 97.2621 33.5143C97.7892 33.5143 98.2945 33.4491 98.778 33.3187C99.2616 33.1829 99.7071 32.9846 100.115 32.7238C100.528 32.4575 100.889 32.1343 101.199 31.7539C101.514 31.3736 101.758 30.9417 101.932 30.4581H104.972C104.722 31.2513 104.355 31.9984 103.872 32.6993C103.388 33.3948 102.807 34.0087 102.128 34.5412C101.448 35.0682 100.688 35.4811 99.8456 35.78C99.0035 36.0788 98.0961 36.2282 97.1236 36.2282C95.6294 36.2282 94.3499 35.8805 93.285 35.185C92.2255 34.4841 91.4649 33.4817 91.003 32.1777C90.5412 30.8683 90.4597 29.3008 90.7585 27.4752C91.0574 25.6986 91.6333 24.1854 92.4863 22.9358C93.3448 21.6861 94.3907 20.7326 95.624 20.0752C96.8628 19.4123 98.1967 19.0809 99.6256 19.0809C100.571 19.0809 101.429 19.2113 102.201 19.4721C102.978 19.7329 103.643 20.1159 104.198 20.6212C104.752 21.1211 105.173 21.735 105.461 22.4631C105.754 23.1857 105.887 24.0116 105.86 24.9406ZM108.425 21.8437L108.849 19.3091H122.166L121.742 21.8437H116.583L114.236 36H111.237L113.584 21.8437H108.425ZM122.089 36H118.861L127.508 19.3091H131.241L134.354 36H131.127L128.886 22.732H128.755L122.089 36ZM123.279 29.4557H132.08L131.673 31.8843H122.871L123.279 29.4557ZM136.553 36L139.324 19.3091H142.347L141.174 26.375H148.908L150.081 19.3091H153.113L150.342 36H147.31L148.484 28.9096H140.75L139.576 36H136.553ZM155.774 36H152.547L161.194 19.3091H164.926L168.04 36H164.812L162.571 22.732H162.441L155.774 36ZM156.964 29.4557H165.766L165.358 31.8843H156.556L156.964 29.4557Z" fill="#F29646"/>
<path d="M192.131 26.6032L191.723 29.0889H184.633L185.048 26.6032H192.131ZM179.743 30.6129H182.783C182.712 31.6453 182.913 32.4276 183.386 32.9601C183.858 33.4926 184.671 33.7588 185.823 33.7588C186.714 33.7588 187.472 33.536 188.096 33.0905C188.727 32.6395 189.235 32.0147 189.62 31.216C190.012 30.4173 190.294 29.4883 190.468 28.4288L190.721 26.9129C190.911 25.7991 190.927 24.8456 190.77 24.0523C190.612 23.2591 190.283 22.6532 189.783 22.2349C189.284 21.8111 188.613 21.5992 187.77 21.5992C186.966 21.5992 186.298 21.7269 185.766 21.9822C185.233 22.2376 184.804 22.6071 184.478 23.0906C184.157 23.5687 183.907 24.142 183.728 24.8102H180.688C180.976 23.7236 181.446 22.7483 182.098 21.8844C182.75 21.0206 183.584 20.3387 184.6 19.8388C185.616 19.3335 186.809 19.0809 188.178 19.0809C189.574 19.0809 190.732 19.4015 191.65 20.0426C192.573 20.6837 193.217 21.5911 193.581 22.7646C193.945 23.9382 193.991 25.3183 193.72 26.9048L193.483 28.4532C193.217 30.0397 192.712 31.4171 191.968 32.5852C191.229 33.7479 190.3 34.6471 189.18 35.2828C188.067 35.9131 186.814 36.2282 185.423 36.2282C184.065 36.2282 182.948 35.9891 182.074 35.511C181.204 35.0275 180.577 34.3646 180.191 33.5224C179.805 32.6749 179.656 31.705 179.743 30.6129ZM195.113 36L197.884 19.3091H200.908L199.734 26.375H207.469L208.642 19.3091H211.674L208.903 36H205.871L207.045 28.9096H199.311L198.137 36H195.113ZM212.191 36L214.962 19.3091H225.818L225.394 21.8437H217.562L216.812 26.375H224.082L223.658 28.9096H216.389L215.639 33.4654H223.536L223.112 36H212.191ZM226.132 36L228.903 19.3091H235.162C236.444 19.3091 237.482 19.5482 238.275 20.0263C239.068 20.499 239.62 21.1537 239.93 21.9904C240.239 22.8217 240.304 23.7698 240.125 24.8347C239.951 25.905 239.568 26.8559 238.976 27.6871C238.389 28.5184 237.615 29.1731 236.653 29.6513C235.692 30.124 234.567 30.3603 233.279 30.3603H229.131L229.547 27.8746H233.287C234.037 27.8746 234.673 27.7442 235.194 27.4834C235.721 27.2226 236.137 26.864 236.441 26.4076C236.746 25.9512 236.947 25.4269 237.044 24.8347C237.137 24.2425 237.107 23.7209 236.955 23.2699C236.803 22.819 236.507 22.4685 236.066 22.2186C235.632 21.9632 235.037 21.8355 234.282 21.8355H231.511L229.155 36H226.132ZM254.383 19.3091L253.959 21.8437H246.25L243.903 36H240.879L243.65 19.3091H254.383ZM256.94 19.3091H259.939L258.065 30.6863H258.212L267.943 19.3091H270.657L267.886 36H264.862L266.753 24.6309H266.614L256.851 36H254.169L256.94 19.3091ZM283.486 36H280.463L282.802 21.8355H280.031C279.281 21.8355 278.645 21.9469 278.124 22.1697C277.608 22.387 277.2 22.7076 276.901 23.1314C276.603 23.5497 276.401 24.055 276.298 24.6472C276.2 25.2395 276.233 25.7393 276.396 26.1468C276.559 26.5489 276.863 26.8559 277.309 27.0678C277.76 27.2742 278.357 27.3774 279.102 27.3774H283.16L282.737 29.8876H278.279C276.996 29.8876 275.951 29.6757 275.141 29.2519C274.331 28.8227 273.764 28.2169 273.438 27.4345C273.117 26.6467 273.044 25.7176 273.218 24.6472C273.397 23.5823 273.777 22.6505 274.359 21.8518C274.94 21.0477 275.703 20.4229 276.649 19.9774C277.6 19.5319 278.711 19.3091 279.982 19.3091H286.249L283.486 36ZM276.111 28.4369H279.412L274.106 36H270.724L276.111 28.4369Z" fill="#F2994A"/>
</svg>
