<svg width="130" height="44" viewBox="0 0 130 44" fill="none" xmlns="http://www.w3.org/2000/svg">
<g clip-path="url(#clip0_18_133)">
<path d="M69.8496 15.7346C69.8809 15.9602 69.8934 16.1388 69.8872 16.2703C69.8872 16.4019 69.8433 16.5022 69.7556 16.5711C69.6741 16.6338 69.5363 16.6714 69.342 16.6839C69.1477 16.7027 68.8814 16.7121 68.543 16.7121C68.3049 16.7121 68.1107 16.7059 67.9603 16.6933C67.8099 16.6871 67.694 16.6714 67.6125 16.6463C67.531 16.6213 67.4746 16.5837 67.4433 16.5335C67.412 16.4834 67.3932 16.4145 67.3869 16.3267L67.0579 13.8829H62.4898L61.2302 16.2703C61.1864 16.3581 61.1362 16.4333 61.0798 16.4959C61.0234 16.5523 60.942 16.5962 60.8354 16.6275C60.7289 16.6589 60.5848 16.6808 60.4031 16.6933C60.2276 16.7059 60.0052 16.7121 59.7357 16.7121C59.4475 16.7121 59.225 16.7027 59.0683 16.6839C58.9054 16.6651 58.7989 16.6213 58.7488 16.5523C58.6924 16.4771 58.6861 16.3737 58.73 16.2422C58.7676 16.1106 58.8459 15.9351 58.9649 15.7158L64.8678 4.92515C64.9305 4.81862 64.9932 4.73402 65.0558 4.67136C65.1185 4.60243 65.2062 4.5523 65.319 4.52097C65.4381 4.48337 65.5947 4.46144 65.789 4.45517C65.9895 4.44264 66.2496 4.43637 66.5691 4.43637C66.9389 4.43637 67.2302 4.44264 67.4433 4.45517C67.6626 4.46144 67.8318 4.48337 67.9509 4.52097C68.0699 4.5523 68.1483 4.60243 68.1859 4.67136C68.2235 4.74029 68.2485 4.83428 68.2611 4.95334L69.8496 15.7346ZM66.1556 6.81445H66.1462L63.4297 11.9842H66.8511L66.1556 6.81445Z" fill="white"/>
<path d="M81.1472 5.66771C81.1472 5.84317 81.1159 6.07815 81.0532 6.37267C80.9968 6.66719 80.9216 6.90531 80.8276 7.08703C80.7399 7.26249 80.6396 7.35022 80.5268 7.35022C80.4454 7.35022 80.3482 7.30009 80.2354 7.19983C80.1226 7.0933 79.9754 6.98051 79.7937 6.86145C79.6119 6.74238 79.3801 6.63272 79.0981 6.53246C78.8161 6.42593 78.4652 6.37267 78.0454 6.37267C77.5817 6.37267 77.1587 6.46667 76.7764 6.65466C76.3942 6.83638 76.0527 7.08077 75.7519 7.38782C75.4511 7.6886 75.1879 8.03638 74.9623 8.43116C74.7367 8.82594 74.5487 9.23639 74.3983 9.6625C74.2542 10.0886 74.1446 10.5147 74.0694 10.9408C74.0004 11.3607 73.966 11.7523 73.966 12.1158C73.966 12.5544 74.0192 12.9398 74.1258 13.2719C74.2386 13.604 74.3983 13.8797 74.6051 14.0991C74.8119 14.3184 75.0657 14.4844 75.3665 14.5972C75.6673 14.7038 76.0057 14.757 76.3816 14.757C76.8266 14.757 77.2057 14.71 77.519 14.616C77.8386 14.522 78.108 14.4186 78.3273 14.3059C78.5529 14.1931 78.7378 14.0897 78.8819 13.9957C79.0323 13.9017 79.167 13.8547 79.2861 13.8547C79.3676 13.8547 79.4208 13.886 79.4459 13.9487C79.4772 14.0051 79.4929 14.0865 79.4929 14.1931C79.4929 14.2369 79.4866 14.3027 79.4741 14.3905C79.4615 14.4782 79.4459 14.5784 79.4271 14.6912C79.4083 14.7978 79.3864 14.9168 79.3613 15.0484C79.3362 15.1737 79.308 15.2928 79.2767 15.4056C79.2454 15.5121 79.2078 15.6124 79.1639 15.7064C79.1263 15.7941 79.073 15.8724 79.0041 15.9414C78.9352 16.0103 78.8004 16.1012 78.5999 16.214C78.3994 16.3205 78.155 16.4207 77.8668 16.5147C77.5785 16.6087 77.2527 16.6871 76.8892 16.7497C76.5258 16.8187 76.1373 16.8531 75.7237 16.8531C75.0406 16.8531 74.4234 16.7623 73.872 16.5805C73.3268 16.3988 72.8631 16.1231 72.4808 15.7534C72.0986 15.3837 71.8041 14.92 71.5973 14.3623C71.3905 13.8045 71.2871 13.1528 71.2871 12.4072C71.2871 11.8244 71.3466 11.2197 71.4657 10.593C71.5848 9.96015 71.7634 9.34292 72.0015 8.74135C72.2459 8.13978 72.5529 7.56954 72.9226 7.03064C73.2923 6.49173 73.7279 6.02176 74.2292 5.62071C74.7367 5.2134 75.3101 4.89068 75.9493 4.65256C76.5947 4.41444 77.3091 4.29538 78.0924 4.29538C78.531 4.29538 78.9446 4.34238 79.3331 4.43637C79.7279 4.5241 80.0694 4.64316 80.3576 4.79355C80.6522 4.94395 80.8558 5.08181 80.9686 5.20713C81.0877 5.32619 81.1472 5.47972 81.1472 5.66771Z" fill="white"/>
<path d="M91.223 4.88755C91.223 4.93141 91.2167 5.00347 91.2042 5.10374C91.1979 5.19773 91.1823 5.30426 91.1572 5.42332C91.1384 5.54238 91.1102 5.66771 91.0726 5.7993C91.0413 5.92463 91.0005 6.04055 90.9504 6.14708C90.9065 6.25361 90.8501 6.34134 90.7812 6.41027C90.7186 6.4792 90.6496 6.51366 90.5744 6.51366H87.5196L85.5645 16.3173C85.5457 16.38 85.5112 16.4364 85.4611 16.4865C85.411 16.5367 85.3326 16.5774 85.2261 16.6087C85.1258 16.6401 84.9943 16.6651 84.8313 16.6839C84.6747 16.7027 84.4741 16.7121 84.2298 16.7121C83.9916 16.7121 83.7942 16.7027 83.6376 16.6839C83.4809 16.6651 83.3587 16.6401 83.271 16.6087C83.1895 16.5774 83.1331 16.5367 83.1018 16.4865C83.0768 16.4364 83.0705 16.38 83.083 16.3173L85.0381 6.51366H82.0115C81.9175 6.51366 81.8517 6.4792 81.8141 6.41027C81.7828 6.34134 81.7671 6.24734 81.7671 6.12828C81.7671 6.07815 81.7702 6.00609 81.7765 5.91209C81.789 5.81183 81.8047 5.70217 81.8235 5.58311C81.8485 5.45778 81.8767 5.33246 81.9081 5.20713C81.9457 5.07554 81.9895 4.95648 82.0397 4.84995C82.0898 4.74342 82.1462 4.65883 82.2089 4.59616C82.2715 4.52723 82.3405 4.49277 82.4157 4.49277H90.988C91.0632 4.49277 91.1196 4.52723 91.1572 4.59616C91.2011 4.66509 91.223 4.76222 91.223 4.88755Z" fill="white"/>
<path d="M99.3354 15.7346C99.3667 15.9602 99.3793 16.1388 99.373 16.2703C99.373 16.4019 99.3291 16.5022 99.2414 16.5711C99.16 16.6338 99.0221 16.6714 98.8278 16.6839C98.6336 16.7027 98.3673 16.7121 98.0289 16.7121C97.7908 16.7121 97.5965 16.7059 97.4461 16.6933C97.2957 16.6871 97.1798 16.6714 97.0983 16.6463C97.0169 16.6213 96.9605 16.5837 96.9291 16.5335C96.8978 16.4834 96.879 16.4145 96.8727 16.3267L96.5438 13.8829H91.9756L90.7161 16.2703C90.6722 16.3581 90.6221 16.4333 90.5657 16.4959C90.5093 16.5523 90.4278 16.5962 90.3213 16.6275C90.2148 16.6589 90.0706 16.6808 89.8889 16.6933C89.7135 16.7059 89.491 16.7121 89.2215 16.7121C88.9333 16.7121 88.7108 16.7027 88.5542 16.6839C88.3913 16.6651 88.2847 16.6213 88.2346 16.5523C88.1782 16.4771 88.1719 16.3737 88.2158 16.2422C88.2534 16.1106 88.3317 15.9351 88.4508 15.7158L94.3537 4.92515C94.4163 4.81862 94.479 4.73402 94.5417 4.67136C94.6043 4.60243 94.6921 4.5523 94.8048 4.52097C94.9239 4.48337 95.0806 4.46144 95.2748 4.45517C95.4753 4.44264 95.7354 4.43637 96.055 4.43637C96.4247 4.43637 96.7161 4.44264 96.9291 4.45517C97.1485 4.46144 97.3176 4.48337 97.4367 4.52097C97.5558 4.5523 97.6341 4.60243 97.6717 4.67136C97.7093 4.74029 97.7344 4.83428 97.7469 4.95334L99.3354 15.7346ZM95.6414 6.81445H95.632L92.9156 11.9842H96.337L95.6414 6.81445Z" fill="white"/>
<path d="M110.417 16.3267C110.405 16.3894 110.373 16.4458 110.323 16.4959C110.273 16.5461 110.198 16.5868 110.097 16.6181C109.997 16.6495 109.866 16.6714 109.703 16.6839C109.54 16.7027 109.339 16.7121 109.101 16.7121C108.863 16.7121 108.666 16.7027 108.509 16.6839C108.352 16.6714 108.23 16.6495 108.142 16.6181C108.061 16.5868 108.005 16.5461 107.973 16.4959C107.942 16.4458 107.936 16.3894 107.954 16.3267L108.932 11.4014H104.383L103.405 16.3267C103.392 16.3894 103.361 16.4458 103.311 16.4959C103.261 16.5461 103.183 16.5868 103.076 16.6181C102.976 16.6495 102.844 16.6714 102.681 16.6839C102.525 16.7027 102.327 16.7121 102.089 16.7121C101.845 16.7121 101.644 16.7027 101.488 16.6839C101.337 16.6714 101.218 16.6495 101.13 16.6181C101.043 16.5868 100.983 16.5461 100.952 16.4959C100.92 16.4458 100.914 16.3894 100.933 16.3267L103.236 4.82175C103.242 4.75909 103.27 4.70269 103.32 4.65256C103.371 4.60243 103.446 4.5617 103.546 4.53037C103.646 4.49903 103.778 4.4771 103.941 4.46457C104.104 4.44577 104.304 4.43637 104.542 4.43637C104.78 4.43637 104.978 4.44577 105.135 4.46457C105.291 4.4771 105.413 4.49903 105.501 4.53037C105.589 4.5617 105.645 4.60243 105.67 4.65256C105.702 4.70269 105.711 4.75909 105.698 4.82175L104.806 9.29592H109.364L110.248 4.82175C110.26 4.75909 110.292 4.70269 110.342 4.65256C110.392 4.60243 110.467 4.5617 110.567 4.53037C110.668 4.49903 110.799 4.4771 110.962 4.46457C111.125 4.44577 111.326 4.43637 111.564 4.43637C111.802 4.43637 111.999 4.44577 112.156 4.46457C112.313 4.4771 112.435 4.49903 112.523 4.53037C112.61 4.5617 112.667 4.60243 112.692 4.65256C112.723 4.70269 112.732 4.75909 112.72 4.82175L110.417 16.3267Z" fill="white"/>
<path d="M123.144 15.7346C123.175 15.9602 123.188 16.1388 123.182 16.2703C123.182 16.4019 123.138 16.5022 123.05 16.5711C122.969 16.6338 122.831 16.6714 122.636 16.6839C122.442 16.7027 122.176 16.7121 121.837 16.7121C121.599 16.7121 121.405 16.7059 121.255 16.6933C121.104 16.6871 120.988 16.6714 120.907 16.6463C120.825 16.6213 120.769 16.5837 120.738 16.5335C120.706 16.4834 120.688 16.4145 120.681 16.3267L120.352 13.8829H115.784L114.525 16.2703C114.481 16.3581 114.431 16.4333 114.374 16.4959C114.318 16.5523 114.236 16.5962 114.13 16.6275C114.023 16.6589 113.879 16.6808 113.698 16.6933C113.522 16.7059 113.3 16.7121 113.03 16.7121C112.742 16.7121 112.519 16.7027 112.363 16.6839C112.2 16.6651 112.093 16.6213 112.043 16.5523C111.987 16.4771 111.981 16.3737 112.024 16.2422C112.062 16.1106 112.14 15.9351 112.259 15.7158L118.162 4.92515C118.225 4.81862 118.288 4.73402 118.35 4.67136C118.413 4.60243 118.501 4.5523 118.613 4.52097C118.733 4.48337 118.889 4.46144 119.083 4.45517C119.284 4.44264 119.544 4.43637 119.864 4.43637C120.233 4.43637 120.525 4.44264 120.738 4.45517C120.957 4.46144 121.126 4.48337 121.245 4.52097C121.364 4.5523 121.443 4.60243 121.48 4.67136C121.518 4.74029 121.543 4.83428 121.555 4.95334L123.144 15.7346ZM119.45 6.81445H119.441L116.724 11.9842H120.146L119.45 6.81445Z" fill="white"/>
<path d="M63.3785 29.7631C63.3785 29.9637 63.366 30.2331 63.3409 30.5715C63.3159 30.9036 63.2626 31.2765 63.1811 31.69C63.1059 32.1036 62.9963 32.5423 62.8521 33.006C62.7143 33.4634 62.5263 33.9177 62.2882 34.3689C62.0563 34.8138 61.7712 35.2431 61.4328 35.6566C61.0944 36.0639 60.6903 36.4243 60.2203 36.7376C59.7503 37.0509 59.2051 37.3015 58.5848 37.4895C57.9707 37.6713 57.272 37.7621 56.4887 37.7621C56.144 37.7621 55.8182 37.7339 55.5111 37.6775C55.2041 37.6274 54.919 37.5616 54.6558 37.4801C54.3989 37.3987 54.1733 37.3047 53.979 37.1981C53.7848 37.0916 53.6438 36.9945 53.556 36.9068C53.4683 36.819 53.4088 36.7376 53.3774 36.6624C53.3524 36.5809 53.3398 36.4744 53.3398 36.3428C53.3398 36.3115 53.343 36.2519 53.3492 36.1642C53.3618 36.0765 53.3774 35.9762 53.3962 35.8634C53.415 35.7444 53.437 35.6222 53.462 35.4968C53.4871 35.3715 53.5184 35.2587 53.556 35.1585C53.5936 35.0519 53.6375 34.9673 53.6876 34.9047C53.744 34.8357 53.8067 34.8013 53.8756 34.8013C53.9445 34.8013 54.0323 34.8514 54.1388 34.9517C54.2516 35.0457 54.4083 35.1522 54.6088 35.2713C54.8093 35.384 55.0694 35.4906 55.3889 35.5908C55.7085 35.6848 56.119 35.7318 56.6203 35.7318C57.0652 35.7318 57.4819 35.6629 57.8704 35.525C58.2652 35.3809 58.6255 35.1647 58.9513 34.8765C59.2772 34.5882 59.5623 34.2279 59.8067 33.7955C60.0511 33.3631 60.2485 32.8587 60.3989 32.2822H55.3325C55.2448 32.2822 55.1821 32.2477 55.1445 32.1788C55.1132 32.1099 55.0975 32.0096 55.0975 31.878C55.0975 31.8404 55.1007 31.7746 55.1069 31.6806C55.1195 31.5866 55.1352 31.4864 55.1539 31.3799C55.1727 31.2671 55.1978 31.1511 55.2291 31.0321C55.2605 30.913 55.2981 30.8033 55.3419 30.7031C55.3921 30.6028 55.4485 30.5214 55.5111 30.4587C55.5738 30.396 55.6427 30.3647 55.7179 30.3647H60.7373C60.7561 30.2394 60.7686 30.1235 60.7749 30.0169C60.7874 29.9041 60.7936 29.8007 60.7936 29.7067C60.7936 29.2932 60.7373 28.9297 60.6245 28.6164C60.5179 28.3031 60.3581 28.043 60.1451 27.8362C59.9383 27.6294 59.6814 27.4728 59.3743 27.3663C59.0735 27.2597 58.7289 27.2065 58.3404 27.2065C57.9205 27.2065 57.5414 27.2535 57.203 27.3475C56.8647 27.4415 56.5701 27.548 56.3195 27.667C56.0688 27.7798 55.862 27.8832 55.6991 27.9772C55.5362 28.0712 55.4203 28.1182 55.3513 28.1182C55.2761 28.1182 55.2197 28.09 55.1821 28.0336C55.1508 27.9772 55.1351 27.877 55.1351 27.7328C55.1351 27.689 55.1383 27.6263 55.1445 27.5449C55.1571 27.4634 55.1727 27.3694 55.1915 27.2629C55.2103 27.1563 55.2323 27.0467 55.2573 26.9339C55.2824 26.8148 55.3106 26.7052 55.3419 26.6049C55.3733 26.4984 55.4077 26.4044 55.4453 26.3229C55.4829 26.2352 55.5299 26.1631 55.5863 26.1067C55.6427 26.0503 55.7649 25.9689 55.9529 25.8623C56.1472 25.7558 56.3853 25.6524 56.6673 25.5522C56.9555 25.4519 57.2814 25.3673 57.6448 25.2984C58.0145 25.2232 58.4093 25.1856 58.8292 25.1856C59.3931 25.1856 59.8944 25.2451 60.3331 25.3642C60.778 25.477 61.1665 25.6368 61.4986 25.8435C61.837 26.0503 62.1252 26.2979 62.3634 26.5861C62.6015 26.8681 62.7957 27.1814 62.9461 27.5261C63.0965 27.8644 63.2062 28.2248 63.2751 28.607C63.3441 28.983 63.3785 29.3684 63.3785 29.7631Z" fill="white"/>
<path d="M73.6148 37.2263C73.6023 37.289 73.5709 37.3454 73.5208 37.3955C73.4707 37.4457 73.3955 37.4864 73.2952 37.5177C73.1949 37.5491 73.0634 37.571 72.9004 37.5835C72.7375 37.6023 72.537 37.6117 72.2989 37.6117C72.0607 37.6117 71.8634 37.6023 71.7067 37.5835C71.55 37.571 71.4278 37.5491 71.3401 37.5177C71.2587 37.4864 71.2023 37.4457 71.1709 37.3955C71.1396 37.3454 71.1333 37.289 71.1521 37.2263L72.1297 32.301H67.5803L66.6028 37.2263C66.5902 37.289 66.5589 37.3454 66.5088 37.3955C66.4586 37.4457 66.3803 37.4864 66.2738 37.5177C66.1735 37.5491 66.0419 37.571 65.879 37.5835C65.7223 37.6023 65.525 37.6117 65.2868 37.6117C65.0424 37.6117 64.8419 37.6023 64.6853 37.5835C64.5349 37.571 64.4158 37.5491 64.3281 37.5177C64.2403 37.4864 64.1808 37.4457 64.1495 37.3955C64.1182 37.3454 64.1119 37.289 64.1307 37.2263L66.4336 25.7213C66.4398 25.6587 66.468 25.6023 66.5182 25.5522C66.5683 25.502 66.6435 25.4613 66.7438 25.43C66.844 25.3986 66.9756 25.3767 67.1385 25.3642C67.3015 25.3454 67.502 25.336 67.7401 25.336C67.9782 25.336 68.1756 25.3454 68.3323 25.3642C68.4889 25.3767 68.6111 25.3986 68.6989 25.43C68.7866 25.4613 68.843 25.502 68.868 25.5522C68.8994 25.6023 68.9088 25.6587 68.8962 25.7213L68.0033 30.1955H72.562L73.4456 25.7213C73.4581 25.6587 73.4895 25.6023 73.5396 25.5522C73.5897 25.502 73.6649 25.4613 73.7652 25.43C73.8654 25.3986 73.997 25.3767 74.16 25.3642C74.3229 25.3454 74.5234 25.336 74.7615 25.336C74.9997 25.336 75.197 25.3454 75.3537 25.3642C75.5104 25.3767 75.6326 25.3986 75.7203 25.43C75.808 25.4613 75.8644 25.502 75.8895 25.5522C75.9208 25.6023 75.9302 25.6587 75.9177 25.7213L73.6148 37.2263Z" fill="white"/>
<path d="M85.6837 25.7495C85.6837 25.7871 85.6774 25.8529 85.6649 25.9469C85.6586 26.0409 85.6461 26.1475 85.6273 26.2665C85.6085 26.3793 85.5834 26.4984 85.5521 26.6237C85.5208 26.749 85.48 26.865 85.4299 26.9715C85.386 27.0717 85.3296 27.1563 85.2607 27.2253C85.198 27.2942 85.1291 27.3287 85.0539 27.3287H80.7113L80.1098 30.2989H83.7944C83.8821 30.2989 83.9448 30.3302 83.9824 30.3929C84.02 30.4556 84.0388 30.5433 84.0388 30.6561C84.0388 30.7 84.0325 30.7689 84.02 30.8629C84.0137 30.9506 84.0012 31.054 83.9824 31.1731C83.9636 31.2859 83.9385 31.4018 83.9072 31.5208C83.8759 31.6399 83.8351 31.7496 83.785 31.8498C83.7411 31.9501 83.6879 32.0315 83.6252 32.0942C83.5625 32.1569 83.4936 32.1882 83.4184 32.1882H79.7432L79.0476 35.619H83.4466C83.5218 35.619 83.5782 35.6535 83.6158 35.7224C83.6534 35.7851 83.6722 35.8791 83.6722 36.0044C83.6722 36.0483 83.6691 36.1172 83.6628 36.2112C83.6565 36.3052 83.6409 36.4117 83.6158 36.5308C83.597 36.6436 83.5719 36.7595 83.5406 36.8786C83.5093 36.9976 83.4685 37.1104 83.4184 37.2169C83.3745 37.3172 83.3213 37.3987 83.2586 37.4613C83.1959 37.524 83.1239 37.5553 83.0424 37.5553H76.9327C76.8325 37.5553 76.7416 37.5428 76.6602 37.5177C76.5787 37.4864 76.5098 37.4394 76.4534 37.3767C76.4032 37.3078 76.3688 37.2263 76.35 37.1323C76.3312 37.0321 76.3343 36.913 76.3594 36.7752L78.4837 26.1725C78.5401 25.8968 78.6528 25.6994 78.822 25.5804C78.9912 25.455 79.1792 25.3924 79.386 25.3924H85.4393C85.6022 25.3924 85.6837 25.5114 85.6837 25.7495Z" fill="white"/>
<path d="M95.6753 28.372C95.6753 28.7229 95.6346 29.0895 95.5531 29.4718C95.478 29.854 95.3526 30.23 95.1772 30.5997C95.0017 30.9631 94.773 31.3109 94.491 31.643C94.2153 31.9689 93.8738 32.2603 93.4665 32.5172C93.0654 32.7678 92.5986 32.9684 92.0659 33.1188C91.5333 33.2629 90.9067 33.3349 90.186 33.3349H88.9171L88.1369 37.2263C88.1244 37.289 88.0931 37.3454 88.0429 37.3955C87.9928 37.4457 87.9145 37.4864 87.808 37.5177C87.7014 37.5491 87.5667 37.571 87.4038 37.5835C87.2409 37.6023 87.0403 37.6117 86.8022 37.6117C86.5704 37.6117 86.3761 37.6023 86.2194 37.5835C86.0691 37.571 85.95 37.5491 85.8623 37.5177C85.7745 37.4864 85.715 37.4488 85.6837 37.4049C85.6523 37.3548 85.6461 37.2953 85.6649 37.2263L87.855 26.2759C87.9113 25.9814 88.0335 25.7621 88.2215 25.618C88.4095 25.4676 88.6414 25.3924 88.9171 25.3924H91.5772C91.903 25.3924 92.1944 25.4049 92.4513 25.43C92.7082 25.4488 92.962 25.4832 93.2127 25.5334C93.5949 25.6086 93.9364 25.7245 94.2372 25.8811C94.5443 26.0378 94.8043 26.2352 95.0174 26.4733C95.2304 26.7052 95.3934 26.9809 95.5062 27.3005C95.6189 27.6138 95.6753 27.971 95.6753 28.372ZM93.0717 28.654C93.0717 28.3532 92.9996 28.0932 92.8555 27.8738C92.7114 27.6545 92.4889 27.501 92.1881 27.4133C92.0565 27.3694 91.9093 27.3412 91.7463 27.3287C91.5834 27.3099 91.4017 27.3005 91.2012 27.3005H90.1108L89.3025 31.4268H90.4304C90.7876 31.4268 91.0915 31.3861 91.3422 31.3047C91.5991 31.2169 91.8215 31.1041 92.0095 30.9663C92.2038 30.8284 92.3667 30.6655 92.4983 30.4775C92.6362 30.2895 92.7458 30.0921 92.8273 29.8853C92.915 29.6785 92.9777 29.4718 93.0153 29.265C93.0529 29.0519 93.0717 28.8482 93.0717 28.654Z" fill="white"/>
<path d="M105.028 25.8059C105.028 25.8561 105.022 25.9313 105.009 26.0315C105.003 26.1255 104.987 26.2321 104.962 26.3511C104.943 26.4639 104.915 26.5861 104.878 26.7177C104.846 26.843 104.806 26.9589 104.755 27.0655C104.712 27.172 104.658 27.2597 104.596 27.3287C104.533 27.3913 104.461 27.4227 104.379 27.4227H100.347L98.3919 37.2357C98.3794 37.2984 98.3481 37.3548 98.298 37.4049C98.2478 37.4488 98.1695 37.4864 98.063 37.5177C97.9627 37.5491 97.8311 37.571 97.6682 37.5835C97.5053 37.6023 97.3047 37.6117 97.0666 37.6117C96.8222 37.6117 96.6217 37.6023 96.465 37.5835C96.3147 37.571 96.1956 37.5491 96.1079 37.5177C96.0201 37.4864 95.9606 37.4488 95.9293 37.4049C95.8979 37.3548 95.8917 37.2984 95.9105 37.2357L98.1194 26.1725C98.1695 25.9093 98.276 25.7151 98.4389 25.5898C98.6019 25.4582 98.793 25.3924 99.0123 25.3924H104.793C104.887 25.3924 104.95 25.4331 104.981 25.5146C105.012 25.5898 105.028 25.6869 105.028 25.8059Z" fill="white"/>
<path d="M114.127 37.2357C114.114 37.2984 114.083 37.3548 114.033 37.4049C113.982 37.4488 113.904 37.4864 113.798 37.5177C113.697 37.5491 113.566 37.571 113.403 37.5835C113.24 37.6023 113.039 37.6117 112.801 37.6117C112.557 37.6117 112.356 37.6023 112.2 37.5835C112.049 37.571 111.93 37.5491 111.842 37.5177C111.761 37.4864 111.705 37.4488 111.673 37.4049C111.648 37.3548 111.642 37.2984 111.654 37.2357L112.698 32.0096C112.729 31.8216 112.767 31.6242 112.811 31.4175C112.854 31.2107 112.901 31.0007 112.952 30.7877C113.002 30.5684 113.052 30.3522 113.102 30.1391C113.158 29.9198 113.215 29.7161 113.271 29.5281H113.262C112.98 29.9041 112.685 30.2832 112.378 30.6655C112.071 31.0477 111.77 31.4112 111.476 31.7558L106.645 37.2451C106.582 37.3203 106.516 37.383 106.447 37.4331C106.378 37.477 106.294 37.5146 106.193 37.5459C106.099 37.571 105.983 37.5867 105.846 37.5929C105.714 37.6055 105.548 37.6117 105.347 37.6117C105.103 37.6117 104.906 37.6055 104.755 37.5929C104.605 37.5804 104.486 37.5585 104.398 37.5271C104.317 37.4958 104.263 37.4551 104.238 37.4049C104.213 37.3485 104.21 37.2796 104.229 37.1981L106.532 25.7119C106.538 25.6493 106.566 25.596 106.616 25.5522C106.673 25.502 106.751 25.4613 106.851 25.43C106.958 25.3986 107.089 25.3767 107.246 25.3642C107.409 25.3454 107.61 25.336 107.848 25.336C108.086 25.336 108.28 25.3454 108.43 25.3642C108.587 25.3767 108.709 25.3986 108.797 25.43C108.885 25.4613 108.944 25.502 108.976 25.5522C109.007 25.596 109.016 25.6493 109.004 25.7119L107.876 31.3893C107.845 31.5396 107.807 31.7057 107.763 31.8874C107.725 32.0691 107.685 32.254 107.641 32.442C107.597 32.6237 107.55 32.8086 107.5 32.9966C107.456 33.1783 107.409 33.3475 107.359 33.5041H107.378C107.491 33.3412 107.613 33.172 107.744 32.9966C107.882 32.8148 108.023 32.6331 108.167 32.4514C108.311 32.2697 108.456 32.0942 108.6 31.925C108.744 31.7558 108.879 31.596 109.004 31.4456L113.957 25.7589C114.033 25.6775 114.105 25.6086 114.174 25.5522C114.249 25.4958 114.336 25.4519 114.437 25.4206C114.537 25.3892 114.653 25.3673 114.785 25.3548C114.922 25.3422 115.088 25.336 115.283 25.336C115.527 25.336 115.724 25.3454 115.875 25.3642C116.032 25.3767 116.151 25.3986 116.232 25.43C116.32 25.4613 116.376 25.502 116.401 25.5522C116.433 25.596 116.442 25.6493 116.429 25.7119L114.127 37.2357Z" fill="white"/>
<path d="M125.171 37.2357C125.152 37.2984 125.117 37.3548 125.067 37.4049C125.023 37.4488 124.951 37.4864 124.851 37.5177C124.757 37.5491 124.629 37.571 124.466 37.5835C124.303 37.6023 124.102 37.6117 123.864 37.6117C123.626 37.6117 123.429 37.6023 123.272 37.5835C123.115 37.571 122.993 37.5491 122.905 37.5177C122.818 37.4864 122.758 37.4488 122.727 37.4049C122.696 37.3548 122.686 37.2984 122.699 37.2357L123.61 32.6864H122.67C122.376 32.6864 122.113 32.7271 121.881 32.8086C121.655 32.8838 121.449 32.9966 121.261 33.147C121.073 33.2974 120.897 33.4853 120.734 33.7109C120.578 33.9302 120.421 34.1872 120.264 34.4817L118.845 37.1793C118.801 37.2545 118.745 37.3203 118.676 37.3767C118.613 37.4331 118.525 37.4801 118.412 37.5177C118.3 37.5491 118.152 37.571 117.971 37.5835C117.795 37.6023 117.579 37.6117 117.322 37.6117C117.034 37.6117 116.805 37.6055 116.636 37.5929C116.467 37.5804 116.335 37.5647 116.241 37.5459C116.147 37.5271 116.088 37.5021 116.063 37.4707C116.031 37.4331 116.016 37.3893 116.016 37.3391C116.016 37.2702 116.038 37.1856 116.081 37.0854C116.119 36.9851 116.2 36.8316 116.326 36.6248L117.82 34.0211C118.002 33.7203 118.181 33.4477 118.356 33.2034C118.532 32.959 118.71 32.749 118.892 32.5736C119.08 32.3981 119.265 32.254 119.446 32.1412C119.628 32.0222 119.816 31.9344 120.01 31.878C119.722 31.8216 119.462 31.7276 119.23 31.596C119.005 31.4582 118.81 31.2953 118.647 31.1073C118.491 30.913 118.369 30.6937 118.281 30.4493C118.199 30.2049 118.159 29.9449 118.159 29.6691C118.159 28.9673 118.284 28.3501 118.535 27.8174C118.785 27.2848 119.136 26.8399 119.587 26.4827C120.045 26.1193 120.587 25.8467 121.214 25.665C121.846 25.4832 122.539 25.3924 123.291 25.3924H126.816C126.916 25.3924 127.007 25.408 127.088 25.4394C127.17 25.4644 127.235 25.5114 127.286 25.5804C127.336 25.643 127.37 25.7245 127.389 25.8247C127.408 25.9187 127.405 26.0347 127.38 26.1725L125.171 37.2357ZM123.272 27.3005C122.865 27.3005 122.501 27.3506 122.182 27.4509C121.868 27.5449 121.602 27.6858 121.383 27.8738C121.17 28.0618 121.007 28.2937 120.894 28.5694C120.781 28.8389 120.725 29.1459 120.725 29.4905C120.725 29.6911 120.762 29.8728 120.838 30.0357C120.913 30.1924 121.022 30.3302 121.167 30.4493C121.317 30.5684 121.502 30.6624 121.721 30.7313C121.94 30.7939 122.197 30.8253 122.492 30.8253H123.986L124.682 27.3005H123.272Z" fill="white"/>
<path d="M20.3441 14.0498C15.4725 17.2504 10.5985 20.4423 5.72214 23.6255C4.29862 24.5582 2.88378 25.5082 1.45736 26.4293C1.33282 26.5104 1.1518 26.5046 0.998294 26.5394C0.973675 26.367 0.882442 26.1715 0.933127 26.0252C1.56162 24.2338 2.23646 22.4583 2.84757 20.6668C3.74542 18.0238 4.59404 15.3634 5.47741 12.716C5.66856 12.1469 5.45858 12.0006 4.91408 11.9658C3.29795 11.8601 1.68327 11.7138 0.0685845 11.585L0.00341797 11.3445L11.758 4.758C10.3866 9.14468 9.07605 13.333 7.76692 17.5212L7.89436 17.6805C8.22888 17.4995 8.58223 17.346 8.89792 17.1346C11.9883 15.0766 15.0641 13.0042 18.1574 10.9463C22.2315 8.23713 26.3085 5.53087 30.3884 2.82751C30.6244 2.6711 30.8779 2.53786 31.1226 2.39304L31.3109 2.48573L27.9439 13.5039L28.0815 13.6762C34.4953 9.48936 40.731 5.03751 47.2129 0.799988C42.8917 13.4648 38.569 26.1295 34.1796 39.0086L32.7996 36.1237C31.6758 33.7776 30.553 31.431 29.4312 29.0839C29.1937 28.5872 28.8751 28.6494 28.4986 28.9C27.5616 29.5386 26.6261 30.1773 25.6834 30.8087C22.4801 32.9507 19.2724 35.0781 16.0778 37.2316C12.8832 39.3852 9.70599 41.5691 6.52007 43.74L6.35933 43.6516C7.85092 38.8377 9.34251 34.0238 10.8746 29.0854H6.03494L5.92054 28.8261C9.91018 26.173 13.9056 23.5372 17.9416 20.9492L18.1414 21.0564C16.7898 25.3595 15.4334 29.6617 14.0721 33.963C14.1489 34.0267 14.2257 34.0904 14.301 34.1556L30.7968 22.9869C31.586 24.8696 32.313 26.6074 33.04 28.3453H33.3441L39.196 11.2562L39.0512 11.1114C38.8046 11.1978 38.5654 11.3038 38.3358 11.4285C33.9914 14.24 29.6498 17.0559 25.3112 19.8761C24.0426 20.6987 22.7581 21.5097 21.2984 22.4336C22.3975 18.7233 23.4373 15.2142 24.5089 11.5922C24.3473 11.6106 24.1878 11.644 24.0325 11.6921L20.3441 14.0498Z" fill="white"/>
</g>
<defs>
<clipPath id="clip0_18_133">
<rect width="130" height="42.94" fill="white" transform="translate(0 0.799988)"/>
</clipPath>
</defs>
</svg>
